<svg width="30" height="30" viewBox="0 0 30 30" fill="none" xmlns="http://www.w3.org/2000/svg">
<circle opacity="0.2" cx="15" cy="15" r="15" fill="#D9D9D9"/>
<path d="M14.7266 14.1484C15.082 14.4766 15.082 15.0508 14.7266 15.3789L10.3516 19.7539C10.1875 19.918 9.96875 20 9.75 20C9.50391 20 9.28516 19.918 9.12109 19.7539C8.76562 19.4258 8.76562 18.8516 9.12109 18.5234L12.8672 14.75L9.12109 11.0039C8.76562 10.6758 8.76562 10.1016 9.12109 9.77344C9.44922 9.41797 10.0234 9.41797 10.3516 9.77344L14.7266 14.1484ZM19.9766 14.1484C20.332 14.4766 20.332 15.0508 19.9766 15.3789L15.6016 19.7539C15.4375 19.918 15.2188 20 15 20C14.7539 20 14.5352 19.918 14.3711 19.7539C14.0156 19.4258 14.0156 18.8516 14.3711 18.5234L18.1172 14.75L14.3711 11.0039C14.0156 10.6758 14.0156 10.1016 14.3711 9.77344C14.6992 9.41797 15.2734 9.41797 15.6016 9.77344L19.9766 14.1484Z" fill="white"/>
</svg>
