<svg width="40" height="40" viewBox="0 0 40 40" fill="none" xmlns="http://www.w3.org/2000/svg">
<path d="M20 40C8.90625 40 0 31.0938 0 20C0 8.98438 8.90625 0 20 0C31.0156 0 40 8.98438 40 20C40 31.0938 31.0156 40 20 40ZM18.125 20C18.125 20.625 18.4375 21.25 18.9062 21.5625L26.4062 26.5625C27.2656 27.1875 28.4375 26.9531 28.9844 26.0938C29.6094 25.2344 29.375 24.0625 28.5156 23.4375L21.875 19.0625V9.375C21.875 8.35938 21.0156 7.5 19.9219 7.5C18.9062 7.5 18.0469 8.35938 18.0469 9.375L18.125 20Z" fill="#28B6F6"/>
</svg>
