<svg width="50" height="50" viewBox="0 0 50 50" fill="none" xmlns="http://www.w3.org/2000/svg">
<rect width="50" height="50" rx="5" fill="#0857DE"/>
<path d="M29.9448 37.556H11.4375C11.2188 37.556 11 37.381 11 37.1185C11 36.856 11.175 36.681 11.4375 36.681H29.9448C30.1636 36.681 30.3823 36.856 30.3823 37.1185C30.3823 37.381 30.1636 37.556 29.9448 37.556Z" fill="white"/>
<path d="M29.9468 37.555H14.1084C13.8897 37.555 13.6709 37.38 13.6709 37.1174V25.9606C13.6709 25.7418 13.8459 25.523 14.1084 25.523C14.3709 25.523 14.5459 25.6981 14.5459 25.9606V36.6799H29.9468C30.1656 36.6799 30.3843 36.8549 30.3843 37.1174C30.3843 37.38 30.1656 37.555 29.9468 37.555Z" fill="white"/>
<path d="M12.9689 26.837C12.4438 26.837 11.9626 26.662 11.5688 26.2683C11.2188 25.9182 11 25.3932 11 24.8682C11 24.3869 11.2188 23.9056 11.525 23.5118L21.5443 13.4925C22.9444 12.0925 25.1758 12.0925 26.5759 13.4925L30.8636 17.7803C31.0386 17.9553 31.0386 18.2178 30.8636 18.3928C30.6886 18.5678 30.4261 18.5678 30.2511 18.3928L25.9633 14.1051C24.9133 13.055 23.2069 13.055 22.1569 14.1051L12.1813 24.0806C12.0063 24.2994 11.875 24.6057 11.875 24.8682C11.875 25.0869 11.9188 25.3932 12.1813 25.6557C12.6188 26.0932 13.3626 26.0932 13.8002 25.6557L23.7757 15.6802C23.9507 15.5051 24.2132 15.5051 24.3883 15.6802L28.0197 19.3116C28.1947 19.4866 28.1947 19.7491 28.0197 19.9241C27.8447 20.0992 27.5822 20.0992 27.4072 19.9241L24.082 16.599L14.4127 26.2683C14.0189 26.662 13.4939 26.837 12.9689 26.837Z" fill="white"/>
<path d="M25.3945 37.5576H19.1817C18.9629 37.5576 18.7441 37.3825 18.7441 37.12V29.1571C18.7441 28.457 19.3129 27.8445 20.0567 27.8445H24.5632C25.2633 27.8445 25.832 28.457 25.832 29.1571V37.12C25.832 37.3388 25.6133 37.5576 25.3945 37.5576ZM19.6192 36.6825H24.957V29.1571C24.957 28.8946 24.7382 28.7196 24.5632 28.7196H20.0567C19.7942 28.7196 19.6192 28.9383 19.6192 29.1571V36.6825Z" fill="white"/>
<path d="M32.6564 37.5124C32.0876 37.5124 31.5626 37.2062 31.2563 36.7249C29.725 34.1873 26.2686 28.0619 26.2686 25.4368C26.2686 21.9366 29.1125 19.0927 32.6127 19.0927C36.1129 19.0927 39.0005 21.9366 39.0005 25.4368C39.0005 27.2744 37.3379 31.0371 34.1002 36.7249C33.7502 37.2062 33.2252 37.5124 32.6564 37.5124ZM32.6127 19.9677C29.5937 19.9677 27.1436 22.4178 27.1436 25.4368C27.1436 27.8869 30.8626 34.3623 32.0001 36.2874C32.1314 36.5061 32.3939 36.6811 32.7002 36.6811C33.0064 36.6811 33.2252 36.5499 33.4002 36.2874C37.2942 29.4182 38.1255 26.5743 38.1255 25.4368C38.1255 22.4178 35.6753 19.9677 32.6127 19.9677Z" fill="white"/>
<path d="M32.6588 29.5044C30.4274 29.5044 28.5898 27.6668 28.5898 25.4355C28.5898 23.2041 30.4274 21.3665 32.6588 21.3665C34.8902 21.3665 36.7278 23.2041 36.7278 25.4355C36.7278 27.6668 34.8902 29.5044 32.6588 29.5044ZM32.6588 22.2415C30.9087 22.2415 29.4649 23.6854 29.4649 25.4355C29.4649 27.1856 30.9087 28.6294 32.6588 28.6294C34.4089 28.6294 35.8528 27.1856 35.8528 25.4355C35.8528 23.6854 34.4089 22.2415 32.6588 22.2415Z" fill="white"/>
<path d="M20.4942 33.4871C20.2754 33.4871 20.0566 33.3121 20.0566 33.0496V32.4808C20.0566 32.2621 20.2317 32.0433 20.4942 32.0433C20.7567 32.0433 20.9317 32.2183 20.9317 32.4808V33.0496C20.9317 33.2684 20.7129 33.4871 20.4942 33.4871Z" fill="white"/>
</svg>
