<svg width="30" height="30" viewBox="0 0 30 30" fill="none" xmlns="http://www.w3.org/2000/svg">
<rect width="30" height="30" rx="5" fill="#0857DE"/>
<path d="M19.9766 10.3672L18.4766 20.0938C18.4531 20.3281 18.3125 20.5391 18.1016 20.6562C17.9844 20.7031 17.8672 20.75 17.7266 20.75C17.6328 20.75 17.5391 20.7266 17.4453 20.6797L14.5859 19.4844L13.3906 21.2656C13.2969 21.4297 13.1328 21.5 12.9688 21.5C12.7109 21.5 12.5 21.2891 12.5 21.0312V18.7812C12.5 18.5938 12.5469 18.4297 12.6406 18.3125L17.75 11.75L10.8594 17.9609L8.44531 16.9531C8.1875 16.8359 8 16.6016 8 16.2969C7.97656 15.9688 8.11719 15.7344 8.375 15.5938L18.875 9.61719C19.1094 9.47656 19.4375 9.47656 19.6719 9.64062C19.9062 9.80469 20.0234 10.0859 19.9766 10.3672Z" fill="white"/>
</svg>
