<svg width="17" height="13" viewBox="0 0 17 13" fill="none" xmlns="http://www.w3.org/2000/svg">
<path d="M5.875 0.5C8.54688 0.5 10.75 2.35156 10.75 4.625C10.75 6.92188 8.54688 8.75 5.875 8.75C5.42969 8.75 5.00781 8.70312 4.58594 8.60938C3.88281 9.05469 2.85156 9.5 1.5625 9.5C1.32812 9.5 1.11719 9.38281 1.04688 9.14844C0.953125 8.9375 0.976562 8.70312 1.14062 8.51562C1.16406 8.51562 1.67969 7.95312 2.05469 7.20312C1.39844 6.5 1 5.60938 1 4.625C1 2.35156 3.17969 0.5 5.875 0.5ZM4.84375 7.50781C5.19531 7.60156 5.52344 7.625 5.875 7.625C7.9375 7.625 9.625 6.28906 9.625 4.625C9.625 2.98438 7.9375 1.625 5.875 1.625C3.78906 1.625 2.125 2.98438 2.125 4.625C2.125 5.46875 2.52344 6.07812 2.875 6.42969L3.4375 7.01562L3.0625 7.74219C2.96875 7.88281 2.875 8.04688 2.78125 8.21094C3.20312 8.09375 3.60156 7.90625 4 7.64844L4.39844 7.41406L4.84375 7.50781ZM11.3359 3.52344C13.9375 3.61719 16 5.42188 16 7.625C16 8.60938 15.5781 9.5 14.9219 10.2031C15.2969 10.9531 15.8125 11.5156 15.8359 11.5156C16 11.7031 16.0234 11.9375 15.9297 12.1484C15.8594 12.3828 15.6484 12.5 15.4141 12.5C14.125 12.5 13.0938 12.0547 12.3906 11.6094C11.9688 11.7031 11.5469 11.75 11.125 11.75C9.20312 11.75 7.53906 10.8125 6.74219 9.45312C7.14062 9.40625 7.53906 9.3125 7.89062 9.17188C8.54688 10.0625 9.74219 10.625 11.125 10.625C11.4531 10.625 11.7812 10.6016 12.1328 10.5078L12.5781 10.4141L12.9766 10.6484C13.375 10.9062 13.7734 11.0938 14.1953 11.2109C14.1016 11.0469 14.0078 10.8828 13.9141 10.7422L13.5391 10.0156L14.1016 9.42969C14.4531 9.07812 14.875 8.46875 14.875 7.625C14.875 6.07812 13.375 4.8125 11.4766 4.64844L11.5 4.625C11.5 4.25 11.4297 3.875 11.3359 3.52344Z" fill="#0857DE"/>
</svg>
