<svg width="16" height="16" viewBox="0 0 16 16" fill="none" xmlns="http://www.w3.org/2000/svg">
<g clip-path="url(#clip0_496_2897)">
<path d="M12.6673 14.6667H3.33398C2.80355 14.6667 2.29484 14.456 1.91977 14.0809C1.5447 13.7058 1.33398 13.1971 1.33398 12.6667V2.00001C1.33398 1.8232 1.40422 1.65363 1.52925 1.52861C1.65427 1.40358 1.82384 1.33334 2.00065 1.33334H11.334C11.5108 1.33334 11.6804 1.40358 11.8054 1.52861C11.9304 1.65363 12.0007 1.8232 12.0007 2.00001V6.66668H14.6673V12.6667C14.6673 13.1971 14.4566 13.7058 14.0815 14.0809C13.7065 14.456 13.1978 14.6667 12.6673 14.6667ZM12.0007 8.00001V12.6667C12.0007 12.8435 12.0709 13.0131 12.1959 13.1381C12.3209 13.2631 12.4905 13.3333 12.6673 13.3333C12.8441 13.3333 13.0137 13.2631 13.1387 13.1381C13.2637 13.0131 13.334 12.8435 13.334 12.6667V8.00001H12.0007ZM3.33398 4.00001V8.00001H7.33398V4.00001H3.33398ZM3.33398 8.66668V10H10.0007V8.66668H3.33398ZM3.33398 10.6667V12H10.0007V10.6667H3.33398ZM4.66732 5.33334H6.00065V6.66668H4.66732V5.33334Z" fill="#0857DE"/>
</g>
<defs>
<clipPath id="clip0_496_2897">
<rect width="16" height="16" fill="white"/>
</clipPath>
</defs>
</svg>
