<svg width="15" height="13" viewBox="0 0 15 13" fill="none" xmlns="http://www.w3.org/2000/svg">
<path d="M13.6875 6.82477L8.6875 11.8248C8.5 12.0123 8.25 12.106 8 12.106C7.71875 12.106 7.46875 12.0123 7.28125 11.8248C6.875 11.4498 6.875 10.7935 7.28125 10.4185L10.5625 7.10602H1C0.4375 7.10602 0 6.66852 0 6.10602C0 5.57477 0.4375 5.10602 1 5.10602H10.5625L7.28125 1.82477C6.875 1.44977 6.875 0.793518 7.28125 0.418518C7.65625 0.0122681 8.3125 0.0122681 8.6875 0.418518L13.6875 5.41852C14.0938 5.79352 14.0938 6.44977 13.6875 6.82477Z" fill="#0857DE"/>
</svg>
