<svg width="1842" height="722" viewBox="0 0 1842 722" fill="none" xmlns="http://www.w3.org/2000/svg">
<path d="M0 0C311.317 106.872 450.358 47.3078 626.585 68.2634C860.5 86.5 807.262 251.5 851.5 413.5C930.669 703.415 1399.69 722 1614.52 722H1841V0H0Z" fill="#F0F5FD"/>
<g opacity="0.1">
<path d="M1563.58 415.435C1563.58 418.316 1562.72 421.132 1561.12 423.527C1559.52 425.922 1557.25 427.789 1554.58 428.891C1551.92 429.994 1548.99 430.282 1546.17 429.72C1543.34 429.158 1540.75 427.771 1538.71 425.734C1536.67 423.697 1535.29 421.102 1534.73 418.276C1534.16 415.451 1534.45 412.523 1535.55 409.861C1536.66 407.2 1538.52 404.925 1540.92 403.325C1543.31 401.724 1546.13 400.87 1549.01 400.87C1552.87 400.87 1556.58 402.405 1559.31 405.136C1562.04 407.867 1563.58 411.572 1563.58 415.435Z" fill="#0857DE"/>
<path d="M1644.34 142.36V116.45H1619.26V142.36H1593.35V167.44H1619.26V193.35H1644.34V167.44H1670.25V142.36H1644.34ZM1668.04 165.23H1642.13V191.14H1621.47V165.23H1595.56V144.58H1621.47V118.66H1642.13V144.58H1668.04V165.23Z" fill="#0857DE"/>
<path d="M1841.47 175.04L1841.46 169.86H1818.23V109.25H1757.62V60.94H1818.23V0.32H1841.2V0L1813.06 0.01V55.76H1752.44V114.42H1813.06V175.04H1841.47Z" fill="#0857DE"/>
<path d="M1137.25 243.721C1140.23 243.721 1142.65 241.302 1142.65 238.318C1142.65 235.334 1140.23 232.915 1137.25 232.915C1134.26 232.915 1131.85 235.334 1131.85 238.318C1131.85 241.302 1134.26 243.721 1137.25 243.721Z" fill="#0857DE"/>
<path d="M1455.66 0.169922V38.3499H1497.94V79.2699H1455.66V121.56H1414.74V79.2699H1372.46V38.3499H1414.74V0.189922L1455.66 0.169922Z" fill="#0857DE"/>
<path d="M1540.73 170.11H1509.9V139.282H1480.07V170.11H1449.24V199.944H1480.07V230.773H1509.9V199.945H1540.73L1540.73 170.11Z" fill="#0857DE"/>
<path d="M1336.85 120.19V55.01H1273.77V120.19H1208.58V183.27H1273.77V248.46H1336.85V183.27H1402.03V120.19H1336.85ZM1396.47 177.71H1331.28V242.89H1279.33V177.71H1214.15V125.76H1279.33V60.57H1331.28V125.76H1396.47V177.71Z" fill="#0857DE"/>
<path d="M1769.44 255.941H1729.97V216.467H1691.77V255.941H1652.3V294.141H1691.77V333.615H1729.97V294.142H1769.45L1769.44 255.941Z" fill="#0857DE"/>
<path d="M1841.51 199.18L1841.61 265.37H1798.74V199.18H1841.51Z" fill="#0857DE"/>
</g>
</svg>
