<svg width="60" height="60" viewBox="0 0 60 60" fill="none" xmlns="http://www.w3.org/2000/svg">
<path d="M58.0333 25.1666C58.2896 25.1666 58.5355 25.0648 58.7168 24.8835C58.8981 24.7022 58.9999 24.4563 58.9999 24.1999V20.3333C58.9999 20.0769 58.8981 19.831 58.7168 19.6497C58.5355 19.4685 58.2896 19.3666 58.0333 19.3666H47.4V6.79998H48.3666C48.623 6.79998 48.8689 6.69814 49.0502 6.51686C49.2314 6.33557 49.3333 6.0897 49.3333 5.83332V1.96666C49.3333 1.71029 49.2314 1.46441 49.0502 1.28313C48.8689 1.10184 48.623 1 48.3666 1H11.6334C11.377 1 11.1311 1.10184 10.9498 1.28313C10.7686 1.46441 10.6667 1.71029 10.6667 1.96666V5.83332C10.6667 6.0897 10.7686 6.33557 10.9498 6.51686C11.1311 6.69814 11.377 6.79998 11.6334 6.79998H12.6V19.3666H1.96674C1.71036 19.3666 1.46449 19.4685 1.2832 19.6497C1.10192 19.831 1.00007 20.0769 1.00007 20.3333V24.1999C1.00007 24.4563 1.10192 24.7022 1.2832 24.8835C1.46449 25.0648 1.71036 25.1666 1.96674 25.1666H2.9334V55.9355L1.33841 57.2985C1.18822 57.427 1.081 57.5983 1.0312 57.7896C0.981399 57.9808 0.991403 58.1827 1.05987 58.3681C1.12833 58.5535 1.25196 58.7134 1.41411 58.8264C1.57625 58.9393 1.76912 58.9999 1.96674 58.9998H58.0333C58.2309 58.9999 58.4237 58.9393 58.5859 58.8264C58.748 58.7134 58.8717 58.5535 58.9401 58.3681C59.0086 58.1827 59.0186 57.9808 58.9688 57.7896C58.919 57.5983 58.8118 57.427 58.6616 57.2985L57.0666 55.9355V25.1666H58.0333ZM12.6 2.93333H47.4V4.86666H12.6V2.93333ZM47.4 25.1666H55.1333V54.2729L54.0699 53.3642C52.4929 52.0109 50.4834 51.2668 48.4053 51.2665H47.4V25.1666ZM35.8 44.4999C34.9449 44.5027 34.1149 44.7888 33.4397 45.3135C32.7646 45.8382 32.2824 46.572 32.0687 47.3999H27.9313C27.7203 46.5704 27.2389 45.8349 26.5631 45.3096C25.8874 44.7843 25.0559 44.4991 24.2 44.4991C23.3441 44.4991 22.5126 44.7843 21.8369 45.3096C21.1612 45.8349 20.6797 46.5704 20.4687 47.3999H18.4V38.6999C18.4023 37.9315 18.7086 37.1952 19.252 36.6518C19.7953 36.1085 20.5316 35.8022 21.3 35.7999H32.9V41.5999C32.9 41.8563 33.0018 42.1021 33.1831 42.2834C33.3644 42.4647 33.6103 42.5666 33.8667 42.5666H41.6V47.3999H39.5313C39.3175 46.572 38.8354 45.8382 38.1602 45.3135C37.4851 44.7888 36.6551 44.5027 35.8 44.4999ZM37.7333 48.3665C37.7333 48.7489 37.6199 49.1227 37.4075 49.4406C37.1951 49.7586 36.8931 50.0064 36.5398 50.1527C36.1866 50.299 35.7978 50.3373 35.4228 50.2627C35.0478 50.1881 34.7033 50.004 34.4329 49.7336C34.1625 49.4632 33.9784 49.1187 33.9038 48.7437C33.8292 48.3687 33.8675 47.98 34.0138 47.6267C34.1601 47.2734 34.4079 46.9715 34.7259 46.759C35.0438 46.5466 35.4176 46.4332 35.8 46.4332C36.3123 46.4347 36.8031 46.6389 37.1654 47.0012C37.5276 47.3634 37.7318 47.8543 37.7333 48.3665ZM33.2673 51.2665H26.7327C27.3146 50.7548 27.7317 50.082 27.9313 49.3332H32.0687C32.2683 50.082 32.6854 50.7548 33.2673 51.2665ZM26.1333 48.3665C26.1333 48.7489 26.02 49.1227 25.8075 49.4406C25.5951 49.7586 25.2931 50.0064 24.9399 50.1527C24.5866 50.299 24.1979 50.3373 23.8228 50.2627C23.4478 50.1881 23.1033 50.004 22.8329 49.7336C22.5626 49.4632 22.3784 49.1187 22.3038 48.7437C22.2292 48.3687 22.2675 47.98 22.4139 47.6267C22.5602 47.2734 22.808 46.9715 23.1259 46.759C23.4438 46.5466 23.8176 46.4332 24.2 46.4332C24.7123 46.4347 25.2032 46.6389 25.5654 47.0012C25.9276 47.3634 26.1318 47.8543 26.1333 48.3665ZM38.7 35.7999C39.4684 35.8022 40.2047 36.1085 40.748 36.6518C41.2914 37.1952 41.5977 37.9315 41.6 38.6999V40.6332H34.8333V35.7999H38.7ZM34.8333 33.8666V32.8999C34.8333 32.6435 34.9352 32.3977 35.1164 32.2164C35.2977 32.0351 35.5436 31.9333 35.8 31.9333C36.0564 31.9333 36.3022 32.0351 36.4835 32.2164C36.6648 32.3977 36.7666 32.6435 36.7666 32.8999V33.8666H34.8333ZM39.5313 49.3332H42.5666C42.823 49.3332 43.0689 49.2314 43.2502 49.0501C43.4314 48.8688 43.5333 48.6229 43.5333 48.3665V38.6999C43.5333 37.418 43.0241 36.1887 42.1176 35.2822C41.2112 34.3758 39.9818 33.8666 38.7 33.8666V32.8999C38.7 32.1308 38.3944 31.3932 37.8506 30.8493C37.3067 30.3055 36.5691 29.9999 35.8 29.9999C35.0309 29.9999 34.2932 30.3055 33.7494 30.8493C33.2055 31.3932 32.9 32.1308 32.9 32.8999V33.8666H21.3C20.0181 33.8666 18.7888 34.3758 17.8823 35.2822C16.9759 36.1887 16.4667 37.418 16.4667 38.6999V48.3665C16.4667 48.6229 16.5685 48.8688 16.7498 49.0501C16.9311 49.2314 17.177 49.3332 17.4334 49.3332H20.4687C20.6683 50.082 21.0854 50.7548 21.6674 51.2665H14.5334V6.79998H45.4666V51.2665H38.3326C38.9146 50.7548 39.3317 50.082 39.5313 49.3332ZM2.9334 21.2999H12.6V23.2333H2.9334V21.2999ZM12.6 25.1666V51.2665H11.5947C9.51657 51.2668 7.50714 52.0109 5.93006 53.3642L4.86673 54.2729V25.1666H12.6ZM4.57673 57.0665L7.18672 54.8335C8.41391 53.7802 9.97747 53.2007 11.5947 53.1999H48.4053C50.0225 53.2007 51.5861 53.7802 52.8133 54.8335L55.4233 57.0665H4.57673ZM47.4 23.2333V21.2999H57.0666V23.2333H47.4Z" fill="#0857DE"/>
<path d="M35.7995 12.6001H32.8996V9.70006C32.8996 9.44369 32.7977 9.19781 32.6164 9.01653C32.4351 8.83524 32.1893 8.7334 31.9329 8.7334H28.0662C27.8099 8.7334 27.564 8.83524 27.3827 9.01653C27.2014 9.19781 27.0996 9.44369 27.0996 9.70006V12.6001H24.1996C23.9432 12.6001 23.6973 12.7019 23.516 12.8832C23.3348 13.0645 23.2329 13.3103 23.2329 13.5667V17.4334C23.2329 17.6898 23.3348 17.9356 23.516 18.1169C23.6973 18.2982 23.9432 18.4 24.1996 18.4H27.0996V21.3C27.0996 21.5564 27.2014 21.8023 27.3827 21.9836C27.564 22.1649 27.8099 22.2667 28.0662 22.2667H31.9329C32.1893 22.2667 32.4351 22.1649 32.6164 21.9836C32.7977 21.8023 32.8996 21.5564 32.8996 21.3V18.4H35.7995C36.0559 18.4 36.3018 18.2982 36.4831 18.1169C36.6644 17.9356 36.7662 17.6898 36.7662 17.4334V13.5667C36.7662 13.3103 36.6644 13.0645 36.4831 12.8832C36.3018 12.7019 36.0559 12.6001 35.7995 12.6001ZM34.8329 16.4667H31.9329C31.6765 16.4667 31.4306 16.5686 31.2494 16.7498C31.0681 16.9311 30.9662 17.177 30.9662 17.4334V20.3334H29.0329V17.4334C29.0329 17.177 28.9311 16.9311 28.7498 16.7498C28.5685 16.5686 28.3226 16.4667 28.0662 16.4667H25.1662V14.5334H28.0662C28.3226 14.5334 28.5685 14.4315 28.7498 14.2503C28.9311 14.069 29.0329 13.8231 29.0329 13.5667V10.6667H30.9662V13.5667C30.9662 13.8231 31.0681 14.069 31.2494 14.2503C31.4306 14.4315 31.6765 14.5334 31.9329 14.5334H34.8329V16.4667Z" fill="#0857DE"/>
<path d="M34.833 26.1338H36.7663V28.0671H34.833V26.1338Z" fill="#0857DE"/>
<path d="M30.325 28.7986L31.692 27.4315L33.0591 28.7986L31.692 30.1657L30.325 28.7986Z" fill="#0857DE"/>
<path d="M38.5259 28.7998L39.8929 27.4327L41.26 28.7998L39.8929 30.1669L38.5259 28.7998Z" fill="#0857DE"/>
<path d="M27.1003 43.5334H29.0336V41.6001H30.967V39.6667H29.0336V37.7334H27.1003V39.6667H25.167V41.6001H27.1003V43.5334Z" fill="#0857DE"/>
<path d="M6.7998 29.0322H10.6665V30.9656H6.7998V29.0322Z" fill="#0857DE"/>
<path d="M6.79968 34.8337H10.6663V36.7671H6.79968V34.8337Z" fill="#0857DE"/>
<path d="M6.7998 40.6338H10.6665V42.5671H6.7998V40.6338Z" fill="#0857DE"/>
<path d="M6.79968 45.4658H10.6663V47.3991H6.79968V45.4658Z" fill="#0857DE"/>
<path d="M49.333 29.0322H53.1997V30.9656H49.333V29.0322Z" fill="#0857DE"/>
<path d="M49.3331 34.8337H53.1997V36.7671H49.3331V34.8337Z" fill="#0857DE"/>
<path d="M49.333 40.6338H53.1997V42.5671H49.333V40.6338Z" fill="#0857DE"/>
<path d="M49.3331 45.4658H53.1997V47.3991H49.3331V45.4658Z" fill="#0857DE"/>
<path d="M16.4666 20.3337H24.1999V22.2671H16.4666V20.3337Z" fill="#0857DE"/>
<path d="M16.4668 26.1338H24.2001V28.0671H16.4668V26.1338Z" fill="#0857DE"/>
<path d="M35.7997 20.3337H43.533V22.2671H35.7997V20.3337Z" fill="#0857DE"/>
</svg>
