<svg width="60" height="60" viewBox="0 0 60 60" fill="none" xmlns="http://www.w3.org/2000/svg">
<path d="M58.0333 22.2667H57.0667V7.76667C57.0644 6.99824 56.7581 6.26195 56.2147 5.71859C55.6714 5.17523 54.9351 4.86896 54.1667 4.86667H42.5667V3.9C42.5644 3.13158 42.2581 2.39528 41.7147 1.85193C41.1714 1.30857 40.4351 1.00229 39.6667 1H10.6667C9.89824 1.00229 9.16195 1.30857 8.61859 1.85193C8.07523 2.39528 7.76896 3.13158 7.76667 3.9V4.86667H6.8C6.03158 4.86896 5.29528 5.17523 4.75193 5.71859C4.20857 6.26195 3.90229 6.99824 3.9 7.76667V12.6H1.96667C1.71029 12.6 1.46442 12.7018 1.28313 12.8831C1.10184 13.0644 1 13.3103 1 13.5667V58.0333C1 58.2897 1.10184 58.5356 1.28313 58.7169C1.46442 58.8982 1.71029 59 1.96667 59H58.0333C58.2897 59 58.5356 58.8982 58.7169 58.7169C58.8982 58.5356 59 58.2897 59 58.0333V23.2333C59 22.977 58.8982 22.7311 58.7169 22.5498C58.5356 22.3685 58.2897 22.2667 58.0333 22.2667ZM42.5667 10.6667H51.2667V14.5333H42.5667V10.6667ZM42.5667 16.4667H52.2333C52.4897 16.4667 52.7356 16.3648 52.9169 16.1835C53.0982 16.0023 53.2 15.7564 53.2 15.5V9.7C53.2 9.44362 53.0982 9.19775 52.9169 9.01646C52.7356 8.83518 52.4897 8.73333 52.2333 8.73333H42.5667V6.8H54.1667C54.423 6.8 54.6689 6.90184 54.8502 7.08313C55.0315 7.26442 55.1333 7.51029 55.1333 7.76667V22.2667H42.5667V16.4667ZM32.9 2.93333H36.7667V11.759L35.365 10.831C35.2083 10.724 35.023 10.6667 34.8333 10.6667C34.6436 10.6667 34.4583 10.724 34.3017 10.831L32.9 11.759V2.93333ZM9.7 3.9C9.7 3.64362 9.80184 3.39775 9.98313 3.21646C10.1644 3.03518 10.4103 2.93333 10.6667 2.93333H30.9667V13.5667C30.9654 13.7419 31.0126 13.9141 31.103 14.0642C31.1934 14.2143 31.3235 14.3365 31.479 14.4173C31.6313 14.5025 31.8046 14.5432 31.9789 14.5346C32.1533 14.5261 32.3217 14.4687 32.465 14.369L34.8333 12.7933L37.2017 14.369C37.3471 14.4647 37.5156 14.5195 37.6895 14.5274C37.8634 14.5352 38.0362 14.496 38.1897 14.4139C38.3431 14.3317 38.4716 14.2096 38.5614 14.0605C38.6512 13.9114 38.6991 13.7407 38.7 13.5667V2.93333H39.6667C39.923 2.93333 40.1689 3.03518 40.3502 3.21646C40.5315 3.39775 40.6333 3.64362 40.6333 3.9V22.2667H31.624L27.999 13.209C27.9274 13.0291 27.8034 12.8749 27.6431 12.7663C27.4828 12.6578 27.2936 12.5998 27.1 12.6H9.7V3.9ZM5.83333 7.76667C5.83333 7.51029 5.93518 7.26442 6.11646 7.08313C6.29775 6.90184 6.54362 6.8 6.8 6.8H7.76667V12.6H5.83333V7.76667ZM2.93333 14.5333H26.4427L29.536 22.2667H2.93333V14.5333ZM57.0667 57.0667H2.93333V24.2H57.0667V57.0667Z" fill="#0857DE"/>
<path d="M11.6333 4.86621H29.0333V6.79954H11.6333V4.86621Z" fill="#0857DE"/>
<path d="M11.6333 8.7334H29.0333V10.6667H11.6333V8.7334Z" fill="#0857DE"/>
<path d="M54.1667 26.1338H5.83337C5.57699 26.1338 5.33111 26.2356 5.14983 26.4169C4.96854 26.5982 4.8667 26.8441 4.8667 27.1005V54.1671C4.8667 54.4235 4.96854 54.6694 5.14983 54.8507C5.33111 55.0319 5.57699 55.1338 5.83337 55.1338H54.1667C54.4231 55.1338 54.6689 55.0319 54.8502 54.8507C55.0315 54.6694 55.1334 54.4235 55.1334 54.1671V27.1005C55.1334 26.8441 55.0315 26.5982 54.8502 26.4169C54.6689 26.2356 54.4231 26.1338 54.1667 26.1338ZM53.2 53.2005H6.80003V28.0671H53.2V53.2005Z" fill="#0857DE"/>
<path d="M29.9998 30C27.8967 30 25.8409 30.6236 24.0922 31.792C22.3436 32.9604 20.9807 34.6211 20.1759 36.5641C19.3711 38.5071 19.1605 40.6451 19.5708 42.7078C19.9811 44.7705 20.9938 46.6651 22.4809 48.1522C23.968 49.6393 25.8627 50.6521 27.9253 51.0624C29.988 51.4726 32.126 51.2621 34.069 50.4573C36.012 49.6524 37.6727 48.2895 38.8411 46.5409C40.0095 44.7923 40.6331 42.7364 40.6331 40.6333C40.6313 37.8137 39.5105 35.1102 37.5167 33.1164C35.523 31.1227 32.8194 30.0018 29.9998 30ZM29.9998 49.3333C28.2791 49.3333 26.5971 48.8231 25.1663 47.8671C23.7356 46.9111 22.6205 45.5524 21.9621 43.9627C21.3036 42.373 21.1313 40.6237 21.467 38.936C21.8027 37.2484 22.6313 35.6982 23.848 34.4815C25.0647 33.2648 26.6149 32.4362 28.3025 32.1005C29.9902 31.7648 31.7394 31.9371 33.3291 32.5956C34.9189 33.2541 36.2776 34.3692 37.2336 35.7999C38.1896 37.2306 38.6998 38.9126 38.6998 40.6333C38.6962 42.9396 37.7785 45.1504 36.1477 46.7812C34.5169 48.412 32.3061 49.3298 29.9998 49.3333Z" fill="#0857DE"/>
<path d="M35.8006 37.7329H32.9006V34.8329C32.9006 34.5765 32.7987 34.3306 32.6174 34.1493C32.4361 33.9681 32.1903 33.8662 31.9339 33.8662H28.0672C27.8108 33.8662 27.565 33.9681 27.3837 34.1493C27.2024 34.3306 27.1006 34.5765 27.1006 34.8329V37.7329H24.2006C23.9442 37.7329 23.6983 37.8347 23.517 38.016C23.3357 38.1973 23.2339 38.4432 23.2339 38.6995V42.5662C23.2339 42.8226 23.3357 43.0685 23.517 43.2497C23.6983 43.431 23.9442 43.5329 24.2006 43.5329H27.1006V46.4329C27.1006 46.6893 27.2024 46.9351 27.3837 47.1164C27.565 47.2977 27.8108 47.3995 28.0672 47.3995H31.9339C32.1903 47.3995 32.4361 47.2977 32.6174 47.1164C32.7987 46.9351 32.9006 46.6893 32.9006 46.4329V43.5329H35.8006C36.0569 43.5329 36.3028 43.431 36.4841 43.2497C36.6654 43.0685 36.7672 42.8226 36.7672 42.5662V38.6995C36.7672 38.4432 36.6654 38.1973 36.4841 38.016C36.3028 37.8347 36.0569 37.7329 35.8006 37.7329ZM34.8339 41.5995H31.9339C31.6775 41.5995 31.4316 41.7014 31.2503 41.8827C31.0691 42.064 30.9672 42.3098 30.9672 42.5662V45.4662H29.0339V42.5662C29.0339 42.3098 28.932 42.064 28.7508 41.8827C28.5695 41.7014 28.3236 41.5995 28.0672 41.5995H25.1672V39.6662H28.0672C28.3236 39.6662 28.5695 39.5644 28.7508 39.3831C28.932 39.2018 29.0339 38.9559 29.0339 38.6995V35.7995H30.9672V38.6995C30.9672 38.9559 31.0691 39.2018 31.2503 39.3831C31.4316 39.5644 31.6775 39.6662 31.9339 39.6662H34.8339V41.5995Z" fill="#0857DE"/>
</svg>
