<svg width="22" height="19" viewBox="0 0 22 19" fill="none" xmlns="http://www.w3.org/2000/svg">
<path d="M20.5312 11.0781L13.0312 18.5781C12.75 18.8594 12.375 19 12 19C11.5781 19 11.2031 18.8594 10.9219 18.5781C10.3125 18.0156 10.3125 17.0312 10.9219 16.4688L15.8438 11.5H1.5C0.65625 11.5 0 10.8438 0 10C0 9.20312 0.65625 8.5 1.5 8.5H15.8438L10.9219 3.57812C10.3125 3.01562 10.3125 2.03125 10.9219 1.46875C11.4844 0.859375 12.4688 0.859375 13.0312 1.46875L20.5312 8.96875C21.1406 9.53125 21.1406 10.5156 20.5312 11.0781Z" fill="white"/>
</svg>
