<svg width="60" height="60" viewBox="0 0 60 60" fill="none" xmlns="http://www.w3.org/2000/svg">
<path d="M56.1 1H3.9C3.13158 1.00229 2.39528 1.30857 1.85193 1.85193C1.30857 2.39528 1.00229 3.13158 1 3.9V38.7C1.00229 39.4684 1.30857 40.2047 1.85193 40.7481C2.39528 41.2914 3.13158 41.5977 3.9 41.6H5.83333V54.1667C5.83333 54.423 5.93518 54.6689 6.11646 54.8502C6.29775 55.0315 6.54362 55.1333 6.8 55.1333H18.4967C18.7362 56.3069 19.403 57.3497 20.3677 58.0596C21.3325 58.7695 22.5264 59.0959 23.7181 58.9755C24.9098 58.8551 26.0144 58.2965 26.8177 57.408C27.6209 56.5195 28.0657 55.3644 28.0657 54.1667C28.0657 52.9689 27.6209 51.8138 26.8177 50.9253C26.0144 50.0368 24.9098 49.4782 23.7181 49.3578C22.5264 49.2374 21.3325 49.5638 20.3677 50.2737C19.403 50.9836 18.7362 52.0264 18.4967 53.2H7.76667V41.6H52.2333V53.2H41.5033C41.2638 52.0264 40.597 50.9836 39.6323 50.2737C38.6675 49.5638 37.4736 49.2374 36.2818 49.3578C35.0901 49.4782 33.9856 50.0368 33.1823 50.9253C32.3791 51.8138 31.9343 52.9689 31.9343 54.1667C31.9343 55.3644 32.3791 56.5195 33.1823 57.408C33.9856 58.2965 35.0901 58.8551 36.2818 58.9755C37.4736 59.0959 38.6675 58.7695 39.6323 58.0596C40.597 57.3497 41.2638 56.3069 41.5033 55.1333H53.2C53.4564 55.1333 53.7022 55.0315 53.8835 54.8502C54.0648 54.6689 54.1667 54.423 54.1667 54.1667V41.6H56.1C56.8684 41.5977 57.6047 41.2914 58.1481 40.7481C58.6914 40.2047 58.9977 39.4684 59 38.7V3.9C58.9977 3.13158 58.6914 2.39528 58.1481 1.85193C57.6047 1.30857 56.8684 1.00229 56.1 1ZM20.5073 53.2C20.7354 52.555 21.1841 52.0114 21.7741 51.6653C22.3642 51.3191 23.0576 51.1927 23.7319 51.3084C24.4061 51.4241 25.0178 51.7744 25.4587 52.2975C25.8996 52.8205 26.1415 53.4826 26.1415 54.1667C26.1415 54.8508 25.8996 55.5128 25.4587 56.0359C25.0178 56.5589 24.4061 56.9092 23.7319 57.0249C23.0576 57.1406 22.3642 57.0142 21.7741 56.668C21.1841 56.3219 20.7354 55.7783 20.5073 55.1333H23.2333V53.2H20.5073ZM39.4927 55.1333C39.2646 55.7783 38.8159 56.3219 38.2259 56.668C37.6358 57.0142 36.9424 57.1406 36.2681 57.0249C35.5939 56.9092 34.9822 56.5589 34.5413 56.0359C34.1004 55.5128 33.8585 54.8508 33.8585 54.1667C33.8585 53.4826 34.1004 52.8205 34.5413 52.2975C34.9822 51.7744 35.5939 51.4241 36.2681 51.3084C36.9424 51.1927 37.6358 51.3191 38.2259 51.6653C38.8159 52.0114 39.2646 52.555 39.4927 53.2H36.7667V55.1333H39.4927ZM57.0667 38.7C57.0667 38.9564 56.9648 39.2022 56.7835 39.3835C56.6022 39.5648 56.3564 39.6667 56.1 39.6667H3.9C3.64362 39.6667 3.39775 39.5648 3.21646 39.3835C3.03518 39.2022 2.93333 38.9564 2.93333 38.7V3.9C2.93333 3.64362 3.03518 3.39775 3.21646 3.21646C3.39775 3.03518 3.64362 2.93333 3.9 2.93333H56.1C56.3564 2.93333 56.6022 3.03518 56.7835 3.21646C56.9648 3.39775 57.0667 3.64362 57.0667 3.9V38.7Z" fill="#0857DE"/>
<path d="M38.7 4.86621H5.83337C5.57699 4.86621 5.33111 4.96806 5.14983 5.14934C4.96854 5.33063 4.8667 5.5765 4.8667 5.83288V36.7662C4.8667 37.0226 4.96854 37.2685 5.14983 37.4497C5.33111 37.631 5.57699 37.7329 5.83337 37.7329H38.7C38.9564 37.7329 39.2023 37.631 39.3836 37.4497C39.5648 37.2685 39.6667 37.0226 39.6667 36.7662V5.83288C39.6667 5.5765 39.5648 5.33063 39.3836 5.14934C39.2023 4.96806 38.9564 4.86621 38.7 4.86621ZM37.7334 35.7995H6.80003V6.79954H37.7334V35.7995Z" fill="#0857DE"/>
<path d="M44.5001 10.6662C45.0737 10.6662 45.6343 10.4961 46.1112 10.1775C46.5882 9.85882 46.9599 9.4059 47.1793 8.87599C47.3988 8.34609 47.4563 7.76299 47.3444 7.20045C47.2325 6.6379 46.9563 6.12117 46.5507 5.7156C46.1451 5.31003 45.6284 5.03383 45.0659 4.92193C44.5033 4.81004 43.9202 4.86747 43.3903 5.08696C42.8604 5.30646 42.4075 5.67816 42.0888 6.15506C41.7702 6.63196 41.6001 7.19265 41.6001 7.76621C41.6001 8.53534 41.9056 9.27297 42.4495 9.81682C42.9933 10.3607 43.731 10.6662 44.5001 10.6662ZM44.5001 6.79955C44.6913 6.79955 44.8782 6.85624 45.0371 6.96246C45.1961 7.06868 45.32 7.21965 45.3932 7.39628C45.4663 7.57292 45.4855 7.76728 45.4482 7.9548C45.4109 8.14231 45.3188 8.31456 45.1836 8.44975C45.0484 8.58494 44.8762 8.677 44.6887 8.7143C44.5012 8.7516 44.3068 8.73246 44.1302 8.65929C43.9535 8.58613 43.8026 8.46223 43.6963 8.30326C43.5901 8.1443 43.5334 7.9574 43.5334 7.76621C43.5334 7.50984 43.6353 7.26396 43.8166 7.08268C43.9978 6.90139 44.2437 6.79955 44.5001 6.79955Z" fill="#0857DE"/>
<path d="M52.233 4.86621C51.6594 4.86621 51.0988 5.03629 50.6219 5.35495C50.145 5.67361 49.7733 6.12652 49.5538 6.65643C49.3343 7.18633 49.2768 7.76943 49.3887 8.33197C49.5006 8.89452 49.7768 9.41125 50.1824 9.81682C50.588 10.2224 51.1047 10.4986 51.6672 10.6105C52.2298 10.7224 52.8129 10.665 53.3428 10.4455C53.8727 10.226 54.3256 9.85427 54.6443 9.37736C54.9629 8.90046 55.133 8.33978 55.133 7.76621C55.133 6.99708 54.8275 6.25946 54.2836 5.7156C53.7398 5.17175 53.0021 4.86621 52.233 4.86621ZM52.233 8.73288C52.0418 8.73288 51.8549 8.67618 51.696 8.56996C51.537 8.46375 51.4131 8.31277 51.3399 8.13614C51.2668 7.9595 51.2476 7.76514 51.2849 7.57762C51.3222 7.39011 51.4143 7.21786 51.5495 7.08267C51.6847 6.94748 51.8569 6.85542 52.0444 6.81812C52.2319 6.78082 52.4263 6.79996 52.6029 6.87313C52.7796 6.94629 52.9305 7.07019 53.0368 7.22916C53.143 7.38813 53.1997 7.57502 53.1997 7.76621C53.1997 8.02259 53.0978 8.26846 52.9165 8.44975C52.7353 8.63103 52.4894 8.73288 52.233 8.73288Z" fill="#0857DE"/>
<path d="M44.5002 18.3994C45.0737 18.3994 45.6344 18.2293 46.1113 17.9106C46.5882 17.592 46.9599 17.1391 47.1794 16.6091C47.3989 16.0792 47.4563 15.4961 47.3444 14.9336C47.2325 14.3711 46.9563 13.8543 46.5508 13.4488C46.1452 13.0432 45.6285 12.767 45.0659 12.6551C44.5034 12.5432 43.9203 12.6006 43.3904 12.8201C42.8605 13.0396 42.4076 13.4113 42.0889 13.8882C41.7702 14.3651 41.6002 14.9258 41.6002 15.4994C41.6002 16.2685 41.9057 17.0061 42.4496 17.55C42.9934 18.0938 43.731 18.3994 44.5002 18.3994ZM44.5002 14.5327C44.6913 14.5327 44.8782 14.5894 45.0372 14.6956C45.1962 14.8018 45.3201 14.9528 45.3932 15.1294C45.4664 15.3061 45.4855 15.5004 45.4483 15.688C45.411 15.8755 45.3189 16.0477 45.1837 16.1829C45.0485 16.3181 44.8763 16.4102 44.6887 16.4475C44.5012 16.4848 44.3069 16.4656 44.1302 16.3924C43.9536 16.3193 43.8026 16.1954 43.6964 16.0364C43.5902 15.8775 43.5335 15.6906 43.5335 15.4994C43.5335 15.243 43.6353 14.9971 43.8166 14.8158C43.9979 14.6345 44.2438 14.5327 44.5002 14.5327Z" fill="#0857DE"/>
<path d="M52.2331 12.5994C51.6595 12.5994 51.0988 12.7694 50.6219 13.0881C50.145 13.4068 49.7733 13.8597 49.5538 14.3896C49.3343 14.9195 49.2769 15.5026 49.3888 16.0651C49.5007 16.6277 49.7769 17.1444 50.1825 17.55C50.588 17.9555 51.1048 18.2317 51.6673 18.3436C52.2299 18.4555 52.8129 18.3981 53.3428 18.1786C53.8728 17.9591 54.3257 17.5874 54.6443 17.1105C54.963 16.6336 55.1331 16.0729 55.1331 15.4994C55.1331 14.7302 54.8275 13.9926 54.2837 13.4488C53.7398 12.9049 53.0022 12.5994 52.2331 12.5994ZM52.2331 16.466C52.0419 16.466 51.855 16.4093 51.696 16.3031C51.5371 16.1969 51.4132 16.0459 51.34 15.8693C51.2668 15.6927 51.2477 15.4983 51.285 15.3108C51.3223 15.1233 51.4143 14.951 51.5495 14.8158C51.6847 14.6806 51.857 14.5886 52.0445 14.5513C52.232 14.514 52.4264 14.5331 52.603 14.6063C52.7796 14.6794 52.9306 14.8033 53.0368 14.9623C53.143 15.1213 53.1997 15.3082 53.1997 15.4994C53.1997 15.7557 53.0979 16.0016 52.9166 16.1829C52.7353 16.3642 52.4894 16.466 52.2331 16.466Z" fill="#0857DE"/>
<path d="M41.6001 22.2666H55.1334V24.1999H41.6001V22.2666Z" fill="#0857DE"/>
<path d="M41.6001 28.0664H55.1334V29.9997H41.6001V28.0664Z" fill="#0857DE"/>
<path d="M41.6001 33.8662H55.1334V35.7995H41.6001V33.8662Z" fill="#0857DE"/>
<path d="M35.8003 20.3326V22.266H30.967C30.7511 22.2658 30.5415 22.1934 30.3716 22.0602C30.2016 21.9271 30.0811 21.7409 30.0293 21.5313L29.0337 17.5486L26.1047 29.2646C26.0542 29.4731 25.9354 29.6587 25.7672 29.7918C25.599 29.9249 25.3912 29.998 25.1767 29.9993H25.167C24.9547 30.0006 24.7481 29.9309 24.5799 29.8013C24.4118 29.6717 24.2918 29.4896 24.239 29.284L22.093 21.4346L19.2993 28.4236C19.2199 28.6215 19.0773 28.7875 18.8938 28.8959C18.7102 29.0043 18.4959 29.049 18.2843 29.023C18.0725 28.9996 17.8747 28.906 17.7222 28.7571C17.5698 28.6081 17.4716 28.4125 17.4433 28.2013L16.264 19.917L15.481 23.4453C15.4302 23.6588 15.3092 23.8492 15.1375 23.9858C14.9658 24.1225 14.7532 24.1977 14.5337 24.1993H8.73367V22.266H13.7603L15.5197 14.32C15.566 14.0968 15.6911 13.8977 15.8722 13.7592C16.0532 13.6208 16.2781 13.5521 16.5057 13.566C16.7319 13.5751 16.9477 13.6633 17.1155 13.8152C17.2833 13.9671 17.3925 14.1731 17.424 14.3973L18.845 24.354L21.368 18.0416C21.4441 17.8547 21.5767 17.6963 21.7474 17.5885C21.918 17.4808 22.1181 17.4292 22.3196 17.4409C22.521 17.4526 22.7138 17.5271 22.8708 17.6539C23.0278 17.7807 23.1411 17.9535 23.195 18.148L25.1283 25.2046L28.096 13.334C28.1484 13.1249 28.2691 12.9394 28.439 12.8069C28.6089 12.6743 28.8182 12.6023 29.0337 12.6023C29.2492 12.6023 29.4585 12.6743 29.6283 12.8069C29.7982 12.9394 29.919 13.1249 29.9713 13.334L31.721 20.3326H35.8003Z" fill="#0857DE"/>
</svg>
