<svg width="130" height="19" viewBox="0 0 130 19" fill="none" xmlns="http://www.w3.org/2000/svg">
<path d="M19.6451 7.17902C19.5154 6.77756 19.1617 6.49332 18.7448 6.45536L13.059 5.93575L10.8119 0.640166C10.646 0.251105 10.2685 0 9.84834 0C9.42817 0 9.05052 0.251105 8.88567 0.640166L6.6386 5.93575L0.951859 6.45536C0.534994 6.49408 0.181996 6.77831 0.0515565 7.17902C-0.0781315 7.58049 0.0416383 8.02083 0.356917 8.29916L4.65496 12.0928L3.38768 17.7112C3.29496 18.1243 3.45425 18.5515 3.79478 18.7993C3.97781 18.9331 4.19286 19 4.40865 19C4.59409 19 4.77969 18.9504 4.94544 18.8505L9.84834 15.8996L14.7503 18.8505C15.1099 19.0669 15.5621 19.047 15.9019 18.7993C16.2424 18.5515 16.4017 18.1243 16.309 17.7112L15.0417 12.0928L19.3398 8.29916C19.6549 8.02083 19.7748 7.58139 19.6451 7.17902Z" fill="#FFBA08"/>
<path d="M47.2008 7.17902C47.0712 6.77756 46.7174 6.49332 46.3005 6.45536L40.6147 5.93575L38.3676 0.640166C38.2017 0.251105 37.8242 0 37.4041 0C36.9839 0 36.6062 0.251105 36.4414 0.640166L34.1943 5.93575L28.5076 6.45536C28.0907 6.49408 27.7377 6.77831 27.6073 7.17902C27.4776 7.58049 27.5974 8.02083 27.9126 8.29916L32.2107 12.0928L30.9434 17.7112C30.8507 18.1243 31.01 18.5515 31.3505 18.7993C31.5335 18.9331 31.7486 19 31.9644 19C32.1498 19 32.3354 18.9504 32.5012 18.8505L37.4041 15.8996L42.3061 18.8505C42.6657 19.0669 43.1179 19.047 43.4576 18.7993C43.7982 18.5515 43.9574 18.1243 43.8647 17.7112L42.5974 12.0928L46.8955 8.29916C47.2106 8.02083 47.3305 7.58139 47.2008 7.17902Z" fill="#FFBA08"/>
<path d="M74.7873 7.17902C74.6576 6.77756 74.3038 6.49332 73.887 6.45536L68.2011 5.93575L65.9541 0.640166C65.7882 0.251105 65.4107 0 64.9905 0C64.5703 0 64.1927 0.251105 64.0278 0.640166L61.7807 5.93575L56.094 6.45536C55.6771 6.49408 55.3241 6.77831 55.1937 7.17902C55.064 7.58049 55.1838 8.02083 55.4991 8.29916L59.7971 12.0928L58.5298 17.7112C58.4371 18.1243 58.5964 18.5515 58.9369 18.7993C59.12 18.9331 59.335 19 59.5508 19C59.7362 19 59.9218 18.9504 60.0876 18.8505L64.9905 15.8996L69.8925 18.8505C70.2521 19.0669 70.7043 19.047 71.0441 18.7993C71.3846 18.5515 71.5439 18.1243 71.4511 17.7112L70.1839 12.0928L74.4819 8.29916C74.797 8.02083 74.917 7.58139 74.7873 7.17902Z" fill="#FFBA08"/>
<path d="M102.362 7.17902C102.232 6.77756 101.879 6.49332 101.462 6.45536L95.7759 5.93575L93.5288 0.640166C93.3629 0.251105 92.9854 0 92.5653 0C92.1451 0 91.7674 0.251105 91.6026 0.640166L89.3555 5.93575L83.6688 6.45536C83.2519 6.49408 82.8989 6.77831 82.7685 7.17902C82.6388 7.58049 82.7586 8.02083 83.0738 8.29916L87.3719 12.0928L86.1046 17.7112C86.0119 18.1243 86.1712 18.5515 86.5117 18.7993C86.6947 18.9331 86.9098 19 87.1256 19C87.311 19 87.4966 18.9504 87.6624 18.8505L92.5653 15.8996L97.4673 18.8505C97.8269 19.0669 98.279 19.047 98.6188 18.7993C98.9593 18.5515 99.1186 18.1243 99.0259 17.7112L97.7586 12.0928L102.057 8.29916C102.372 8.02083 102.492 7.58139 102.362 7.17902Z" fill="#FFBA08"/>
<path d="M129.948 7.17902C129.819 6.77756 129.465 6.49332 129.048 6.45536L123.362 5.93575L121.115 0.640166C120.949 0.251105 120.572 0 120.152 0C119.732 0 119.354 0.251105 119.189 0.640166L116.942 5.93575L111.255 6.45536C110.838 6.49408 110.485 6.77831 110.355 7.17902C110.225 7.58049 110.345 8.02083 110.66 8.29916L114.958 12.0928L113.691 17.7112C113.598 18.1243 113.758 18.5515 114.098 18.7993C114.281 18.9331 114.496 19 114.712 19C114.897 19 115.083 18.9504 115.249 18.8505L120.152 15.8996L125.054 18.8505C125.413 19.0669 125.865 19.047 126.205 18.7993C126.546 18.5515 126.705 18.1243 126.612 17.7112L125.345 12.0928L129.643 8.29916C129.958 8.02083 130.078 7.58139 129.948 7.17902Z" fill="#FFBA08"/>
</svg>
