<svg width="60" height="60" viewBox="0 0 60 60" fill="none" xmlns="http://www.w3.org/2000/svg">
<path d="M58.0333 22.2667H57.0667V7.76667C57.0644 6.99824 56.7581 6.26195 56.2147 5.71859C55.6714 5.17523 54.9351 4.86896 54.1667 4.86667H42.5667V3.9C42.5644 3.13158 42.2581 2.39528 41.7147 1.85193C41.1714 1.30857 40.4351 1.00229 39.6667 1H10.6667C9.89824 1.00229 9.16195 1.30857 8.61859 1.85193C8.07523 2.39528 7.76896 3.13158 7.76667 3.9V4.86667H6.8C6.03158 4.86896 5.29528 5.17523 4.75193 5.71859C4.20857 6.26195 3.90229 6.99824 3.9 7.76667V12.6H1.96667C1.71029 12.6 1.46442 12.7018 1.28313 12.8831C1.10184 13.0644 1 13.3103 1 13.5667V58.0333C1 58.2897 1.10184 58.5356 1.28313 58.7169C1.46442 58.8982 1.71029 59 1.96667 59H58.0333C58.2897 59 58.5356 58.8982 58.7169 58.7169C58.8982 58.5356 59 58.2897 59 58.0333V23.2333C59 22.977 58.8982 22.7311 58.7169 22.5498C58.5356 22.3685 58.2897 22.2667 58.0333 22.2667ZM42.5667 10.6667H51.2667V14.5333H42.5667V10.6667ZM42.5667 16.4667H52.2333C52.4897 16.4667 52.7356 16.3648 52.9169 16.1835C53.0982 16.0023 53.2 15.7564 53.2 15.5V9.7C53.2 9.44362 53.0982 9.19775 52.9169 9.01646C52.7356 8.83518 52.4897 8.73333 52.2333 8.73333H42.5667V6.8H54.1667C54.423 6.8 54.6689 6.90184 54.8502 7.08313C55.0315 7.26442 55.1333 7.51029 55.1333 7.76667V22.2667H42.5667V16.4667ZM32.9 2.93333H36.7667V11.759L35.365 10.831C35.2083 10.724 35.023 10.6667 34.8333 10.6667C34.6436 10.6667 34.4583 10.724 34.3017 10.831L32.9 11.759V2.93333ZM9.7 3.9C9.7 3.64362 9.80184 3.39775 9.98313 3.21646C10.1644 3.03518 10.4103 2.93333 10.6667 2.93333H30.9667V13.5667C30.9654 13.7419 31.0126 13.9141 31.103 14.0642C31.1934 14.2143 31.3235 14.3365 31.479 14.4173C31.6313 14.5025 31.8046 14.5432 31.9789 14.5346C32.1533 14.5261 32.3217 14.4687 32.465 14.369L34.8333 12.7933L37.2017 14.369C37.3471 14.4647 37.5156 14.5195 37.6895 14.5274C37.8634 14.5352 38.0362 14.496 38.1897 14.4139C38.3431 14.3317 38.4716 14.2096 38.5614 14.0605C38.6512 13.9114 38.6991 13.7407 38.7 13.5667V2.93333H39.6667C39.923 2.93333 40.1689 3.03518 40.3502 3.21646C40.5315 3.39775 40.6333 3.64362 40.6333 3.9V22.2667H31.624L27.999 13.209C27.9274 13.0291 27.8034 12.8749 27.6431 12.7663C27.4828 12.6578 27.2936 12.5998 27.1 12.6H9.7V3.9ZM5.83333 7.76667C5.83333 7.51029 5.93518 7.26442 6.11646 7.08313C6.29775 6.90184 6.54362 6.8 6.8 6.8H7.76667V12.6H5.83333V7.76667ZM2.93333 14.5333H26.4427L29.536 22.2667H2.93333V14.5333ZM57.0667 57.0667H2.93333V24.2H57.0667V57.0667Z" fill="#0857DE"/>
<path d="M11.6328 4.86621H29.0328V6.79954H11.6328V4.86621Z" fill="#0857DE"/>
<path d="M11.6328 8.7334H29.0328V10.6667H11.6328V8.7334Z" fill="#0857DE"/>
<path d="M54.1672 26.1338H5.83385C5.57748 26.1338 5.3316 26.2356 5.15032 26.4169C4.96903 26.5982 4.86719 26.8441 4.86719 27.1005V54.1671C4.86719 54.4235 4.96903 54.6694 5.15032 54.8507C5.3316 55.0319 5.57748 55.1338 5.83385 55.1338H54.1672C54.4236 55.1338 54.6694 55.0319 54.8507 54.8507C55.032 54.6694 55.1339 54.4235 55.1339 54.1671V27.1005C55.1339 26.8441 55.032 26.5982 54.8507 26.4169C54.6694 26.2356 54.4236 26.1338 54.1672 26.1338ZM53.2005 53.2005H6.80052V28.0671H53.2005V53.2005Z" fill="#0857DE"/>
<path d="M30.0005 30C27.8974 30 25.8416 30.6236 24.093 31.792C22.3443 32.9604 20.9814 34.6211 20.1766 36.5641C19.3718 38.5071 19.1612 40.6451 19.5715 42.7078C19.9818 44.7705 20.9945 46.6651 22.4816 48.1522C23.9687 49.6393 25.8634 50.6521 27.9261 51.0624C29.9887 51.4726 32.1267 51.2621 34.0697 50.4573C36.0127 49.6524 37.6734 48.2895 38.8418 46.5409C40.0102 44.7923 40.6339 42.7364 40.6339 40.6333C40.6321 37.8137 39.5112 35.1102 37.5174 33.1164C35.5237 31.1227 32.8201 30.0018 30.0005 30ZM30.0005 49.3333C28.2798 49.3333 26.5978 48.8231 25.1671 47.8671C23.7364 46.9111 22.6213 45.5524 21.9628 43.9627C21.3043 42.373 21.132 40.6237 21.4677 38.936C21.8034 37.2484 22.632 35.6982 23.8487 34.4815C25.0654 33.2648 26.6156 32.4362 28.3032 32.1005C29.9909 31.7648 31.7402 31.9371 33.3299 32.5956C34.9196 33.2541 36.2783 34.3692 37.2343 35.7999C38.1903 37.2306 38.7005 38.9126 38.7005 40.6333C38.6969 42.9396 37.7792 45.1504 36.1484 46.7812C34.5176 48.412 32.3068 49.3298 30.0005 49.3333Z" fill="#0857DE"/>
<path d="M35.801 37.7329H32.901V34.8329C32.901 34.5765 32.7992 34.3306 32.6179 34.1493C32.4366 33.9681 32.1908 33.8662 31.9344 33.8662H28.0677C27.8113 33.8662 27.5655 33.9681 27.3842 34.1493C27.2029 34.3306 27.101 34.5765 27.101 34.8329V37.7329H24.201C23.9447 37.7329 23.6988 37.8347 23.5175 38.016C23.3362 38.1973 23.2344 38.4432 23.2344 38.6995V42.5662C23.2344 42.8226 23.3362 43.0685 23.5175 43.2497C23.6988 43.431 23.9447 43.5329 24.201 43.5329H27.101V46.4329C27.101 46.6893 27.2029 46.9351 27.3842 47.1164C27.5655 47.2977 27.8113 47.3995 28.0677 47.3995H31.9344C32.1908 47.3995 32.4366 47.2977 32.6179 47.1164C32.7992 46.9351 32.901 46.6893 32.901 46.4329V43.5329H35.801C36.0574 43.5329 36.3033 43.431 36.4846 43.2497C36.6659 43.0685 36.7677 42.8226 36.7677 42.5662V38.6995C36.7677 38.4432 36.6659 38.1973 36.4846 38.016C36.3033 37.8347 36.0574 37.7329 35.801 37.7329ZM34.8344 41.5995H31.9344C31.678 41.5995 31.4321 41.7014 31.2508 41.8827C31.0696 42.064 30.9677 42.3098 30.9677 42.5662V45.4662H29.0344V42.5662C29.0344 42.3098 28.9325 42.064 28.7512 41.8827C28.57 41.7014 28.3241 41.5995 28.0677 41.5995H25.1677V39.6662H28.0677C28.3241 39.6662 28.57 39.5644 28.7512 39.3831C28.9325 39.2018 29.0344 38.9559 29.0344 38.6995V35.7995H30.9677V38.6995C30.9677 38.9559 31.0696 39.2018 31.2508 39.3831C31.4321 39.5644 31.678 39.6662 31.9344 39.6662H34.8344V41.5995Z" fill="#0857DE"/>
</svg>
