<svg width="50" height="50" viewBox="0 0 50 50" fill="none" xmlns="http://www.w3.org/2000/svg">
<rect width="50" height="50" rx="5" fill="#0857DE"/>
<path d="M31.1358 25.4362C30.8697 25.4362 30.6552 25.2209 30.6552 24.9548C30.6584 21.864 28.1625 19.3435 25.0431 19.3435C24.7778 19.3435 24.5625 19.1283 24.5625 18.8629C24.5625 18.6032 24.7698 18.3816 25.0494 18.3816C28.6598 18.3816 31.6203 21.3032 31.6171 24.9556C31.6164 25.2217 31.4011 25.4362 31.1358 25.4362Z" fill="white"/>
<path d="M34.3767 25.435C34.1106 25.435 33.8961 25.2197 33.8961 24.9536C33.8993 20.0755 29.9577 16.1005 25.0431 16.1005C24.7778 16.1005 24.5625 15.8853 24.5625 15.62C24.5625 15.361 24.7698 15.1386 25.0486 15.1386C30.4892 15.1386 34.8613 19.5528 34.8581 24.9544C34.8573 25.2205 34.642 25.435 34.3767 25.435Z" fill="white"/>
<path d="M37.3961 25.4354C37.1308 25.4354 36.9155 25.2202 36.9155 24.9548C36.9187 18.4054 31.6219 13.0824 25.0431 13.0824C24.7778 13.0824 24.5625 12.8672 24.5625 12.6019C24.5625 12.3429 24.769 12.1213 25.0478 12.1213C32.1343 12.1213 37.8798 17.8629 37.8767 24.9556C37.8767 25.2202 37.6614 25.4354 37.3961 25.4354Z" fill="white"/>
<path d="M32.0678 39C31.6635 39 30.4695 38.9198 28.6116 38.1238C25.114 36.6257 21.7134 33.6826 19.0674 30.9325C17.1474 29.0849 15.5301 27.2547 14.2608 25.4936C13.2368 24.0733 12.4346 22.6919 11.8761 21.3884C10.9578 19.246 10.9928 17.9862 11.0031 17.8027C11.0595 14.9978 12.5291 12.7967 14.8891 11.3692C16.0457 10.6694 17.5502 10.9919 18.3136 12.104L21.2352 16.3578C21.5934 16.8796 21.7444 17.5127 21.6602 18.1403C21.576 18.7678 21.263 19.3382 20.7792 19.7473L19.8459 20.5361C19.8467 20.5392 19.8467 20.5432 19.8475 20.5464C20.3161 23.5101 26.4898 29.6838 29.4536 30.1525C29.4567 30.1533 29.4607 30.1533 29.4639 30.1541L30.2527 29.2207C31.0963 28.2214 32.5619 28.0236 33.6422 28.7648L37.896 31.6864C39.008 32.4498 39.3306 33.9543 38.6307 35.1108C37.0484 37.7235 34.678 39 32.0678 39ZM11.9627 17.8631C11.9595 17.9147 11.9071 19.0625 12.8039 21.1128C13.6523 23.0518 15.5444 26.2101 19.7402 30.2462C19.9158 30.3924 24.2251 35.1561 28.8872 37.196C29.8658 37.6242 31.0923 38.0357 32.1679 38.0357C35.1523 37.9801 36.8824 36.1435 37.8086 34.6136C38.2447 33.8923 38.0445 32.955 37.3518 32.4792L33.0981 29.5575C32.4229 29.0936 31.5157 29.216 30.9875 29.8411L30.0303 30.9739C29.9286 31.0946 29.7737 31.1574 29.6172 31.1423C29.5139 31.1319 29.4083 31.1184 29.3034 31.1025C26.6455 30.6807 22.3854 26.7821 20.3042 23.7246C19.5027 22.5481 19.0293 21.529 18.8974 20.6973C18.8807 20.5925 18.8672 20.4876 18.8577 20.3835C18.8426 20.2263 18.9054 20.0722 19.0261 19.9705L20.1588 19.0133C20.784 18.485 20.9063 17.5779 20.4424 16.9027L17.5216 12.6481C17.0458 11.9554 16.1084 11.7553 15.3872 12.1914C13.8564 13.1176 12.0207 14.8477 11.9651 17.8321C11.9643 17.8448 11.9643 17.8511 11.9627 17.8631Z" fill="white"/>
</svg>
