<svg width="50" height="50" viewBox="0 0 50 50" fill="none" xmlns="http://www.w3.org/2000/svg">
<rect width="50" height="50" rx="5" fill="#0857DE"/>
<path d="M38.9993 23.2832C38.9993 23.1715 38.9659 23.0588 38.8952 22.9616C38.8707 22.9279 38.8428 22.8982 38.8128 22.8719C38.8129 22.8719 38.813 22.8718 38.8131 22.8717L36.9258 21.2201C37.3325 20.8926 37.5933 20.3911 37.5933 19.8296V18.9323C37.5933 16.52 35.6308 14.5574 33.2185 14.5574C30.8062 14.5574 28.8437 16.52 28.8437 18.9323C28.8437 21.3445 30.8062 23.3071 33.2185 23.3071C33.5205 23.3071 33.7653 23.0622 33.7653 22.7602C33.7653 22.4582 33.5205 22.2134 33.2185 22.2134C31.4093 22.2134 29.9374 20.7415 29.9374 18.9323C29.9374 17.123 31.4093 15.6511 33.2185 15.6511C35.0277 15.6511 36.4996 17.123 36.4996 18.9323V19.8296C36.4996 20.2108 36.1895 20.5209 35.8083 20.5209C35.4272 20.5209 35.1171 20.2108 35.1171 19.8296V19.074V17.5018C35.1171 17.3514 35.0552 17.2077 34.9459 17.1044C34.4769 16.661 33.8634 16.4167 33.2185 16.4167C31.8315 16.4167 30.703 17.5452 30.703 18.9323C30.703 20.3193 31.8315 21.4478 33.2185 21.4478C33.6878 21.4478 34.1402 21.3178 34.5327 21.0765C34.8466 21.3975 35.2801 21.6006 35.7604 21.6134C35.7897 21.6647 35.8275 21.7122 35.8744 21.7534L37.5776 23.2439L33.2032 26.4263V25.0006C33.2032 24.6986 32.9584 24.4538 32.6563 24.4538C32.3543 24.4538 32.1095 24.6986 32.1095 25.0006V27.2219L28.027 30.1919L25.3221 28.2242C25.1303 28.0846 24.8705 28.0846 24.6787 28.2242L21.9738 30.1919L12.447 23.2611L15.5587 20.5378C15.786 20.3389 15.809 19.9934 15.6101 19.7661C15.4111 19.5389 15.0657 19.5159 14.8384 19.7148L11.2027 22.8591C11.2024 22.8594 11.2022 22.8595 11.202 22.8597C11.0793 22.96 11.001 23.1124 11.001 23.2832V38.4531C11.001 38.7552 11.2458 39 11.5478 39H38.453C38.755 39 38.9998 38.7552 38.9998 38.4531V23.2832C38.9997 23.2832 38.9994 23.2832 38.9993 23.2832ZM34.0235 19.0741V19.8297V20.1039C33.7879 20.2664 33.5088 20.3541 33.2186 20.3541C32.4346 20.3541 31.7967 19.7162 31.7967 18.9323C31.7967 18.1483 32.4346 17.5104 33.2186 17.5104C33.5088 17.5104 33.7879 17.5981 34.0235 17.7606V19.0741ZM12.0947 24.3573L21.0442 30.8682L12.0947 37.3791V24.3573ZM13.2291 37.9063L25.0004 29.3426L36.7717 37.9063H13.2291ZM37.9061 37.3791L28.9565 30.8682L37.9061 24.3573V37.3791Z" fill="white"/>
<path d="M29.4491 14.6769L25.3587 11.1333C25.1509 10.9532 24.8464 10.9582 24.6443 11.1326C24.6441 11.1324 24.644 11.1323 24.6438 11.1322L22.6751 12.8274C22.4463 13.0245 22.4205 13.3698 22.6176 13.5986C22.7258 13.7242 22.8785 13.7887 23.0322 13.7887C23.1586 13.7887 23.2856 13.7451 23.3888 13.6562L24.9997 12.2691L27.6394 14.556H17.3447C17.0427 14.556 16.7979 14.8008 16.7979 15.1028V22.9758C16.7979 23.2778 17.0427 23.5226 17.3447 23.5226C17.6467 23.5226 17.8916 23.2778 17.8916 22.9758V15.6497H29.091C29.0892 15.6452 29.0879 15.6412 29.0861 15.6368C29.0877 15.6368 29.0892 15.637 29.0908 15.637C29.2439 15.637 29.3962 15.573 29.5044 15.4483C29.7021 15.22 29.6774 14.8746 29.4491 14.6769Z" fill="white"/>
<path d="M25.0756 20.0778H19.6084C19.3063 20.0778 19.0615 20.3226 19.0615 20.6246C19.0615 20.9266 19.3063 21.1715 19.6084 21.1715H25.0756C25.3776 21.1715 25.6224 20.9266 25.6224 20.6246C25.6224 20.3226 25.3776 20.0778 25.0756 20.0778Z" fill="white"/>
<path d="M24.9994 17.3435H19.6084C19.3063 17.3435 19.0615 17.5883 19.0615 17.8904C19.0615 18.1924 19.3063 18.4372 19.6084 18.4372H24.9994C25.3014 18.4372 25.5463 18.1924 25.5463 17.8904C25.5463 17.5883 25.3014 17.3435 24.9994 17.3435Z" fill="white"/>
<path d="M17.7313 24.7948C17.6296 24.6931 17.4885 24.6346 17.3447 24.6346C17.2009 24.6346 17.0598 24.6931 16.9581 24.7948C16.8564 24.8965 16.7979 25.0376 16.7979 25.1814C16.7979 25.3258 16.8564 25.4663 16.9581 25.5681C17.0598 25.6704 17.2009 25.7283 17.3447 25.7283C17.4885 25.7283 17.6296 25.6703 17.7313 25.5681C17.833 25.4663 17.8916 25.3258 17.8916 25.1814C17.8916 25.0376 17.833 24.8965 17.7313 24.7948Z" fill="white"/>
<path d="M28.6972 22.7728H27.626C27.3239 22.7728 27.0791 23.0176 27.0791 23.3196C27.0791 23.6216 27.3239 23.8665 27.626 23.8665H28.6972C28.9992 23.8665 29.244 23.6216 29.244 23.3196C29.244 23.0176 28.9992 22.7728 28.6972 22.7728Z" fill="white"/>
<path d="M25.2081 22.7723H25.2021C24.9001 22.7723 24.6553 23.0171 24.6553 23.3191C24.6553 23.6212 24.9001 23.866 25.2021 23.866H25.2081C25.5101 23.866 25.755 23.6212 25.755 23.3191C25.755 23.0171 25.5102 22.7723 25.2081 22.7723Z" fill="white"/>
<path d="M22.594 22.7723H19.6064C19.3044 22.7723 19.0596 23.0171 19.0596 23.3191C19.0596 23.6212 19.3044 23.866 19.6064 23.866H22.594C22.8961 23.866 23.1409 23.6212 23.1409 23.3191C23.1409 23.0171 22.8961 22.7723 22.594 22.7723Z" fill="white"/>
</svg>
