<svg width="100" height="101" viewBox="0 0 100 101" fill="none" xmlns="http://www.w3.org/2000/svg">
<path d="M72.1665 50.1334C70.4868 50.1334 68.8759 49.4652 67.6882 48.2758C66.5004 47.0863 65.8332 45.4731 65.8332 43.791H62.6665C62.6665 46.3142 63.6674 48.734 65.449 50.5182C67.2306 52.3023 69.6469 53.3046 72.1665 53.3046C74.6861 53.3046 77.1024 52.3023 78.884 50.5182C80.6656 48.734 81.6665 46.3142 81.6665 43.791H78.4998C78.4998 45.4731 77.8326 47.0863 76.6448 48.2758C75.4571 49.4652 73.8462 50.1334 72.1665 50.1334Z" fill="white"/>
<path d="M83.25 56.4754H83.0916C86.045 54.6255 88.4806 52.0545 90.17 49.0037C91.8594 45.9529 92.7471 42.5223 92.75 39.0338V31.1058H94.3333C94.7532 31.1058 95.1559 30.9387 95.4529 30.6414C95.7498 30.344 95.9166 29.9407 95.9166 29.5202V26.349C95.9233 21.3597 94.3609 16.4951 91.4512 12.4451C88.5415 8.39519 84.4322 5.36566 79.7062 3.78634C74.9803 2.20702 69.8777 2.1581 65.1225 3.64654C60.3672 5.13497 56.2007 8.08517 53.2141 12.0786H4.08333C3.66341 12.0786 3.26068 12.2456 2.96375 12.543C2.66681 12.8404 2.5 13.2437 2.5 13.6642V96.1154C2.5 96.536 2.66681 96.9393 2.96375 97.2366C3.26068 97.534 3.66341 97.701 4.08333 97.701H95.9166C96.3366 97.701 96.7393 97.534 97.0362 97.2366C97.3331 96.9393 97.5 96.536 97.5 96.1154V70.7458C97.4941 66.9629 95.9909 63.3366 93.3198 60.6616C90.6486 57.9867 87.0275 56.4813 83.25 56.4754ZM83.25 70.7458V73.917H80.0833V70.7458H83.25ZM51.5833 26.349C51.5833 20.8821 53.7519 15.6392 57.612 11.7735C61.4722 7.90788 66.7076 5.73618 72.1666 5.73618C77.6257 5.73618 82.8611 7.90788 86.7212 11.7735C90.5814 15.6392 92.75 20.8821 92.75 26.349V27.9346H91.8158L85.5616 21.6556C84.5238 20.61 83.2145 19.8761 81.7819 19.5371C80.3492 19.198 78.8504 19.2673 77.455 19.737L52.9133 27.9346H51.5833V26.349ZM46.9283 69.1602C46.8647 69.6863 46.8329 70.2159 46.8333 70.7458V75.5026H31V78.6738H46.8333V85.0162H31V88.1874H46.8333V94.5298H5.66667V15.2498H51.1716C49.3578 18.6671 48.4116 22.4789 48.4166 26.349V29.5202C48.4166 29.9407 48.5835 30.344 48.8804 30.6414C49.1773 30.9387 49.5801 31.1058 50 31.1058H51.5833V39.0338C51.5861 42.5223 52.4739 45.9529 54.1633 49.0037C55.8527 52.0545 58.2883 54.6255 61.2416 56.4754H61.0833C58.1401 56.4783 55.2702 57.3947 52.8685 59.0985C50.4669 60.8022 48.6516 63.2095 47.6725 65.989H31V69.1602H46.9283ZM70.5833 94.5298H50V70.7458C50.0031 68.0791 50.9649 65.5026 52.7094 63.4878C54.4538 61.4729 56.8644 60.1544 59.5 59.7735V73.917H56.3333C55.9134 73.917 55.5107 74.0841 55.2137 74.3814C54.9168 74.6788 54.75 75.0821 54.75 75.5026V85.0162H57.9166V77.0882H64.25V85.0162H67.4166V75.5026C67.4166 75.0821 67.2498 74.6788 66.9529 74.3814C66.656 74.0841 66.2532 73.917 65.8333 73.917H62.6666V59.6466H70.5833V94.5298ZM54.75 39.0338V30.6618L78.4525 22.7497C79.2898 22.4686 80.189 22.428 81.0481 22.6326C81.9072 22.8372 82.692 23.2787 83.3133 23.9072L89.5833 30.1703V39.0338C89.5833 43.6596 87.7483 48.096 84.4821 51.3669C81.2158 54.6378 76.7858 56.4754 72.1666 56.4754C67.5475 56.4754 63.1175 54.6378 59.8512 51.3669C56.5849 48.096 54.75 43.6596 54.75 39.0338ZM94.3333 94.5298H73.75V59.6466H80.0833V67.5746H78.5C78.08 67.5746 77.6773 67.7417 77.3804 68.039C77.0835 68.3364 76.9166 68.7397 76.9166 69.1602V75.5026C76.9166 75.9232 77.0835 76.3265 77.3804 76.6238C77.6773 76.9212 78.08 77.0882 78.5 77.0882H84.8333C85.2532 77.0882 85.656 76.9212 85.9529 76.6238C86.2498 76.3265 86.4166 75.9232 86.4166 75.5026V69.1602C86.4166 68.7397 86.2498 68.3364 85.9529 68.039C85.656 67.7417 85.2532 67.5746 84.8333 67.5746H83.25V59.6466C86.1884 59.65 89.0056 60.8204 91.0834 62.9012C93.1612 64.982 94.3299 67.8032 94.3333 70.7458V94.5298Z" fill="white"/>
<path d="M62.6666 31.106H65.8333V37.4484H62.6666V31.106Z" fill="white"/>
<path d="M78.5 31.106H81.6667V37.4484H78.5V31.106Z" fill="white"/>
<path d="M43.6666 27.9347H38.9166V23.1779C38.9166 22.7574 38.7498 22.3541 38.4529 22.0567C38.156 21.7593 37.7532 21.5923 37.3333 21.5923H31C30.5801 21.5923 30.1773 21.7593 29.8804 22.0567C29.5835 22.3541 29.4166 22.7574 29.4166 23.1779V27.9347H24.6666C24.2467 27.9347 23.844 28.1017 23.5471 28.3991C23.2501 28.6965 23.0833 29.0998 23.0833 29.5203V35.8627C23.0833 36.2832 23.2501 36.6865 23.5471 36.9839C23.844 37.2812 24.2467 37.4483 24.6666 37.4483H29.4166V42.2051C29.4166 42.6256 29.5835 43.0289 29.8804 43.3263C30.1773 43.6236 30.5801 43.7907 31 43.7907H37.3333C37.7532 43.7907 38.156 43.6236 38.4529 43.3263C38.7498 43.0289 38.9166 42.6256 38.9166 42.2051V37.4483H43.6666C44.0866 37.4483 44.4893 37.2812 44.7862 36.9839C45.0832 36.6865 45.25 36.2832 45.25 35.8627V29.5203C45.25 29.0998 45.0832 28.6965 44.7862 28.3991C44.4893 28.1017 44.0866 27.9347 43.6666 27.9347ZM42.0833 34.2771H37.3333C36.9134 34.2771 36.5107 34.4441 36.2137 34.7415C35.9168 35.0389 35.75 35.4422 35.75 35.8627V40.6195H32.5833V35.8627C32.5833 35.4422 32.4165 35.0389 32.1196 34.7415C31.8226 34.4441 31.4199 34.2771 31 34.2771H26.25V31.1059H31C31.4199 31.1059 31.8226 30.9388 32.1196 30.6415C32.4165 30.3441 32.5833 29.9408 32.5833 29.5203V24.7635H35.75V29.5203C35.75 29.9408 35.9168 30.3441 36.2137 30.6415C36.5107 30.9388 36.9134 31.1059 37.3333 31.1059H42.0833V34.2771Z" fill="white"/>
<path d="M13.5835 27.9341C12.3249 27.9378 11.1189 28.4402 10.2289 29.3315C9.33891 30.2227 8.83726 31.4305 8.8335 32.6909V81.8445C8.83657 82.0165 8.86321 82.1872 8.91266 82.3519L12.0793 91.8655C12.1834 92.1827 12.3849 92.4589 12.655 92.6548C12.9251 92.8506 13.25 92.956 13.5835 92.956C13.9169 92.956 14.2419 92.8506 14.512 92.6548C14.7821 92.4589 14.9835 92.1827 15.0877 91.8655L18.2543 82.3519C18.3038 82.1872 18.3304 82.0165 18.3335 81.8445V32.6909C18.3297 31.4305 17.8281 30.2227 16.9381 29.3315C16.0481 28.4402 14.8421 27.9378 13.5835 27.9341ZM13.5835 86.3476L12.6177 83.4301H14.5493L13.5835 86.3476ZM15.1668 80.2589H12.0002V32.6909C12.0002 32.2704 12.167 31.8671 12.4639 31.5697C12.7608 31.2723 13.1636 31.1053 13.5835 31.1053C14.0034 31.1053 14.4061 31.2723 14.7031 31.5697C15 31.8671 15.1668 32.2704 15.1668 32.6909V80.2589Z" fill="white"/>
<path d="M21.5 46.9614H27.8333V50.1326H21.5V46.9614Z" fill="white"/>
<path d="M31 46.9614H48.4167V50.1326H31V46.9614Z" fill="white"/>
<path d="M21.5 56.4751H27.8333V59.6463H21.5V56.4751Z" fill="white"/>
<path d="M31 56.4751H48.4167V59.6463H31V56.4751Z" fill="white"/>
<path d="M21.5 65.9888H27.8333V69.16H21.5V65.9888Z" fill="white"/>
<path d="M21.5 75.5024H27.8333V78.6736H21.5V75.5024Z" fill="white"/>
<path d="M21.5 85.0161H27.8333V88.1873H21.5V85.0161Z" fill="white"/>
</svg>
