<svg width="41" height="41" viewBox="0 0 41 41" fill="none" xmlns="http://www.w3.org/2000/svg">
<rect x="0.300781" y="0.208984" width="40.0932" height="40.0573" rx="5" fill="#F0F5FD"/>
<path d="M30.2852 25.8408L29.3477 29.7861C29.2305 30.3721 28.7617 30.7627 28.1758 30.7627C18.332 30.7236 10.3242 22.7158 10.3242 12.8721C10.3242 12.2861 10.6758 11.8174 11.2617 11.7002L15.207 10.7627C15.7539 10.6455 16.3398 10.958 16.5742 11.4658L18.4102 15.7236C18.6055 16.2314 18.4883 16.8174 18.0586 17.1299L15.9492 18.8486C17.2773 21.5439 19.4648 23.7314 22.1992 25.0596L23.918 22.9502C24.2305 22.5596 24.8164 22.4033 25.3242 22.5986L29.582 24.4346C30.0898 24.708 30.4023 25.2939 30.2852 25.8408Z" fill="#0857DE"/>
</svg>
