<svg width="315" height="603" viewBox="0 0 315 603" fill="none" xmlns="http://www.w3.org/2000/svg">
<g opacity="0.1" clip-path="url(#clip0_496_8)">
<g opacity="0.7">
<path d="M228.262 602.825C232.741 598.382 235.302 592.358 235.394 586.046C235.455 582.973 234.894 579.919 233.747 577.067C232.599 574.216 230.888 571.626 228.716 569.453L211.979 552.708L208.627 556.071L225.356 572.816C227.098 574.557 228.471 576.632 229.391 578.918C230.312 581.203 230.761 583.651 230.712 586.115C230.638 591.172 228.586 595.998 224.998 599.559C217.522 607.035 205.535 607.201 198.265 599.931L193.536 595.19C191.365 593.015 188.778 591.301 185.929 590.152C183.08 589.004 180.028 588.444 176.957 588.506C170.648 588.598 164.626 591.164 160.186 595.652C150.865 604.982 150.658 619.956 159.725 629.031L179.271 648.594L182.623 645.231L163.085 625.668C155.815 618.398 155.98 606.374 163.45 598.918C167.019 595.318 171.856 593.262 176.923 593.192C179.384 593.142 181.829 593.591 184.111 594.513C186.393 595.434 188.466 596.808 190.203 598.553L194.94 603.287C203.979 612.362 218.919 612.19 228.262 602.825Z" fill="white"/>
<path d="M103.863 501.854L158.596 556.636C173.088 571.107 196.916 570.81 211.821 555.899C226.726 540.987 227.043 517.145 212.551 502.633L157.818 447.851C155.819 445.911 153.133 444.844 150.349 444.884C147.565 444.924 144.91 446.068 142.968 448.065L104.077 486.991C102.082 488.935 100.939 491.592 100.899 494.378C100.859 497.165 101.925 499.854 103.863 501.854Z" fill="#79C9BC"/>
<path d="M103.863 501.854L129.089 527.102L183.043 473.099L157.818 447.851C155.819 445.911 153.133 444.844 150.349 444.884C147.565 444.924 144.91 446.068 142.968 448.065L104.077 486.991C102.082 488.935 100.939 491.592 100.899 494.378C100.859 497.165 101.925 499.854 103.863 501.854Z" fill="#BDE5DE"/>
<path d="M104.077 486.991L142.968 448.065C143.929 447.075 145.076 446.285 146.343 445.739C147.609 445.193 148.971 444.902 150.35 444.882C151.729 444.863 153.099 445.116 154.38 445.627C155.661 446.137 156.83 446.896 157.818 447.858L212.551 502.626C227.009 517.097 226.712 540.98 211.814 555.892C196.916 570.804 173.088 571.134 158.596 556.629L103.87 501.848C101.93 499.85 100.862 497.162 100.9 494.377C100.939 491.591 102.082 488.934 104.077 486.991ZM161.956 553.273C174.623 565.952 195.525 565.677 208.544 552.633C221.563 539.588 221.859 518.675 209.191 505.996L154.465 451.214C153.916 450.678 153.266 450.255 152.553 449.97C151.84 449.686 151.078 449.545 150.31 449.556C149.543 449.566 148.785 449.729 148.08 450.034C147.375 450.338 146.738 450.779 146.204 451.331L107.313 490.257C106.761 490.792 106.321 491.43 106.016 492.135C105.712 492.841 105.549 493.599 105.538 494.367C105.528 495.136 105.668 495.899 105.953 496.612C106.237 497.326 106.659 497.976 107.196 498.526L161.956 553.273Z" fill="white"/>
<path d="M136.2 510.171L146.128 500.235L136.476 490.574L146.548 480.486L156.207 490.154L166.135 480.217L175.932 490.023L166.004 499.959L175.663 509.627L165.584 519.715L155.932 510.047L146.004 519.984L136.2 510.171Z" fill="white"/>
</g>
<g opacity="0.7">
<path d="M131.367 264.653C132.644 267.928 134.186 271.092 135.98 274.114C136.668 275.251 137.357 276.485 138.197 277.773C144.042 286.959 154.245 299.927 171.663 315.094L195.511 335.87L219.359 315.115C235.263 301.278 245.142 289.274 251.18 280.302C252.047 279.007 252.839 277.787 253.555 276.63C255.961 272.846 258.004 268.843 259.655 264.674C263.022 255.636 262.665 245.629 258.663 236.854C254.661 228.079 247.341 221.254 238.313 217.879C230.681 215.03 222.316 214.827 214.555 217.302C206.795 219.777 200.089 224.787 195.511 231.529C190.936 224.789 184.235 219.778 176.479 217.3C168.723 214.821 160.361 215.018 152.73 217.858C143.699 221.23 136.375 228.054 132.369 236.829C128.363 245.604 128.003 255.612 131.367 264.653Z" fill="#79C9BC"/>
<path d="M152.737 217.858C156.794 216.344 161.089 215.57 165.418 215.571C171.348 215.566 177.188 217.014 182.43 219.788C187.696 222.556 192.201 226.579 195.545 231.502C198.884 226.587 203.372 222.564 208.62 219.783C213.867 217.001 219.714 215.546 225.652 215.543C229.979 215.543 234.272 216.318 238.326 217.831C247.355 221.206 254.675 228.031 258.677 236.806C262.679 245.581 263.036 255.588 259.669 264.626C258.021 268.808 255.974 272.821 253.555 276.609C252.867 277.767 252.047 278.986 251.18 280.282C245.142 289.24 235.263 301.257 219.359 315.094L195.511 335.87L171.656 315.115C154.231 299.955 144.035 286.98 138.183 277.801C137.364 276.506 136.627 275.272 135.966 274.135C134.174 271.113 132.634 267.949 131.36 264.674C129.69 260.196 128.918 255.431 129.088 250.654C129.259 245.876 130.368 241.179 132.354 236.831C134.339 232.483 137.161 228.57 140.658 225.314C144.156 222.059 148.26 219.525 152.737 217.858ZM174.079 312.324L195.511 330.991L216.957 312.324C229.349 301.56 239.339 290.79 246.726 280.282H192.84L186.513 255.937L177.976 308.996L167.532 266.273L162.513 291.08L157.288 277.677L142.568 277.725C148.062 285.974 157.749 298.122 174.072 312.324H174.079ZM134.837 263.365C136.042 266.447 137.495 269.427 139.181 272.275C139.56 272.964 139.925 273.529 140.269 274.101L159.821 274.046L161.432 278.18L167.243 249.508L177.274 290.535L185.721 238.117L195.676 276.609H249.211C249.638 275.954 250.044 275.307 250.43 274.686C252.714 271.104 254.655 267.313 256.226 263.365C259.231 255.24 258.897 246.255 255.297 238.377C251.697 230.499 245.124 224.369 237.018 221.331C233.373 219.964 229.511 219.263 225.617 219.264C220.278 219.256 215.018 220.559 210.299 223.061C205.58 225.562 201.547 229.185 198.554 233.611L195.511 238.096L192.475 233.611C189.48 229.186 185.447 225.564 180.729 223.063C176.01 220.562 170.751 219.257 165.411 219.264C161.518 219.262 157.656 219.962 154.011 221.331C149.983 222.821 146.291 225.094 143.146 228.02C140.002 230.947 137.468 234.467 135.691 238.379C133.902 242.279 132.903 246.495 132.751 250.783C132.598 255.071 133.296 259.348 134.803 263.365H134.837Z" fill="white"/>
</g>
<g opacity="0.7">
<path d="M284.207 132.133L347.614 195.598C350.728 198.714 350.728 203.766 347.614 206.883L329.962 224.55C326.849 227.667 321.801 227.667 318.688 224.55L255.28 161.086C252.167 157.97 252.167 152.917 255.28 149.801L272.932 132.133C276.045 129.017 281.093 129.017 284.207 132.133Z" fill="#BDE5DE"/>
<path d="M256.208 104.108L262.586 110.491L233.659 139.444L227.282 133.061L256.208 104.108Z" fill="#BDE5DE"/>
<path d="M256.254 148.826L254.815 142.294L242.815 130.283L253.438 119.651L265.438 131.662L271.965 133.109L256.254 148.826Z" fill="#79C9BC"/>
<path d="M286.98 192.817L318.649 224.515C320.146 226.01 322.174 226.85 324.288 226.85C326.402 226.85 328.43 226.01 329.926 224.515L347.579 206.854C348.319 206.113 348.907 205.233 349.308 204.264C349.709 203.296 349.915 202.258 349.915 201.21C349.915 200.162 349.709 199.124 349.308 198.156C348.907 197.187 348.319 196.307 347.579 195.566L315.909 163.834L286.98 192.817Z" fill="#79C9BC"/>
<path d="M255.283 149.819L272.936 132.158C273.676 131.418 274.556 130.832 275.523 130.434C276.491 130.035 277.528 129.832 278.574 129.835C279.621 129.834 280.659 130.04 281.626 130.441C282.594 130.841 283.473 131.43 284.213 132.171L347.613 195.635C348.354 196.376 348.943 197.256 349.344 198.224C349.746 199.192 349.952 200.231 349.952 201.279C349.952 202.327 349.746 203.366 349.344 204.334C348.943 205.302 348.354 206.182 347.613 206.923L340.157 214.385L368.577 242.83C368.758 243.011 368.902 243.226 369.001 243.462C369.099 243.699 369.149 243.952 369.149 244.209C369.149 244.465 369.099 244.718 369.001 244.955C368.902 245.191 368.758 245.406 368.577 245.587C368.21 245.949 367.715 246.152 367.2 246.152C366.684 246.152 366.189 245.949 365.823 245.587L337.403 217.135L329.947 224.604C329.207 225.346 328.328 225.934 327.361 226.335C326.393 226.736 325.356 226.942 324.309 226.94C323.261 226.942 322.224 226.737 321.256 226.336C320.289 225.935 319.41 225.346 318.67 224.604L308.825 214.75L306.071 211.994L255.242 161.113C253.751 159.61 252.918 157.575 252.926 155.457C252.934 153.339 253.782 151.311 255.283 149.819ZM258.037 158.377L261.418 161.76L273.121 150.046L275.875 152.802L264.171 164.517L268.516 168.865L272.963 164.289L275.717 167.046L271.214 171.545L274.891 175.232L286.595 163.518L289.349 166.274L277.645 177.988L281.968 182.316L286.464 177.809L289.218 180.565L284.715 185.065L288.412 188.765L300.116 177.051L302.87 179.807L291.166 191.522L295.476 195.828L299.978 191.322L302.732 194.078L298.23 198.578L302.539 202.891L314.243 191.177L316.997 193.933L305.293 205.648L308.99 209.348L313.493 204.842L316.247 207.598L311.744 212.104L315.304 215.695L327.007 203.98L329.761 206.737L318.057 218.451L321.445 221.834C322.217 222.608 323.264 223.044 324.357 223.047C324.897 223.047 325.432 222.94 325.931 222.732C326.429 222.523 326.882 222.218 327.262 221.834L344.907 204.152C345.675 203.378 346.105 202.332 346.105 201.241C346.105 200.151 345.675 199.104 344.907 198.33L281.5 134.866C280.728 134.096 279.684 133.663 278.595 133.66C277.503 133.661 276.456 134.094 275.683 134.866L258.037 152.534C257.654 152.915 257.351 153.368 257.144 153.867C256.937 154.366 256.831 154.901 256.832 155.442C256.828 155.982 256.93 156.517 257.134 157.017C257.337 157.518 257.637 157.973 258.017 158.356L258.037 158.377Z" fill="white"/>
</g>
<g opacity="0.7">
<path d="M77.9236 549.12L141.331 612.585C144.445 615.701 144.445 620.753 141.331 623.869L123.679 641.537C120.566 644.653 115.518 644.653 112.405 641.537L48.997 578.073C45.8836 574.956 45.8836 569.904 48.997 566.788L66.649 549.12C69.7624 546.004 74.8102 546.004 77.9236 549.12Z" fill="#BDE5DE"/>
<path d="M49.9255 521.102L56.3028 527.485L27.3762 556.437L20.9989 550.054L49.9255 521.102Z" fill="#BDE5DE"/>
<path d="M49.9705 565.822L48.5247 559.282L36.5248 547.272L47.1478 536.639L59.1477 548.657L65.6812 550.097L49.9705 565.822Z" fill="#79C9BC"/>
<path d="M80.6965 609.812L112.366 641.544C113.862 643.04 115.89 643.88 118.004 643.88C120.119 643.88 122.147 643.04 123.643 641.544L141.329 623.904C142.823 622.406 143.663 620.377 143.663 618.26C143.663 616.144 142.823 614.114 141.329 612.617L109.619 580.885L80.6965 609.812Z" fill="#79C9BC"/>
<path d="M48.9998 566.793L66.645 549.132C67.3841 548.389 68.2628 547.799 69.2305 547.397C70.1982 546.995 71.2358 546.788 72.2835 546.789C73.3315 546.787 74.3694 546.993 75.3373 547.395C76.3051 547.797 77.1837 548.388 77.922 549.132L141.329 612.589C142.823 614.087 143.663 616.116 143.663 618.233C143.663 620.349 142.823 622.379 141.329 623.876L133.866 631.346L162.293 659.791C162.475 659.971 162.62 660.186 162.719 660.422C162.818 660.659 162.869 660.913 162.869 661.169C162.869 661.425 162.818 661.679 162.719 661.916C162.62 662.152 162.475 662.367 162.293 662.547C162.112 662.728 161.898 662.871 161.661 662.968C161.425 663.065 161.172 663.114 160.916 663.112C160.661 663.114 160.407 663.066 160.171 662.969C159.934 662.872 159.72 662.728 159.539 662.547L131.119 634.102L123.663 641.565C122.924 642.308 122.046 642.898 121.078 643.3C120.11 643.702 119.073 643.909 118.025 643.908C116.977 643.91 115.939 643.704 114.971 643.301C114.003 642.899 113.125 642.309 112.386 641.565L102.569 631.69L99.8151 628.934L48.986 578.059C47.5 576.561 46.6672 574.535 46.6698 572.423C46.6724 570.312 47.5101 568.288 48.9998 566.793ZM51.7536 575.344L55.1408 578.735L66.8447 567.02L69.5985 569.777L57.8947 581.491L62.232 585.832L66.7345 581.332L69.4884 584.089L64.9927 588.595L68.6691 592.275L80.373 580.561L83.1268 583.317L71.423 595.031L75.7396 599.352L80.2421 594.852L82.996 597.609L78.4935 602.115L82.1905 605.815L93.8943 594.101L96.6482 596.857L84.9443 608.572L89.2541 612.885L93.7498 608.379L96.5036 611.135L92.0011 615.642L96.304 619.948L108.008 608.234L110.762 610.99L99.0578 622.705L102.755 626.405L107.25 621.898L110.004 624.655L105.502 629.161L109.233 632.896L120.937 621.182L123.691 623.938L111.987 635.652L115.374 639.043C115.756 639.426 116.21 639.731 116.71 639.938C117.21 640.145 117.746 640.25 118.287 640.249C118.826 640.25 119.361 640.144 119.86 639.937C120.359 639.73 120.811 639.426 121.192 639.043L138.596 621.147C139.363 620.373 139.794 619.327 139.794 618.236C139.794 617.145 139.363 616.099 138.596 615.325L75.1957 551.861C74.8133 551.476 74.3583 551.171 73.8572 550.964C73.356 550.757 72.8188 550.652 72.2766 550.655C71.7368 550.654 71.202 550.759 70.7033 550.966C70.2046 551.173 69.7519 551.477 69.3713 551.861L51.7192 569.522C50.9485 570.296 50.5154 571.344 50.5144 572.437C50.5144 572.977 50.6215 573.513 50.8295 574.012C51.0375 574.511 51.3422 574.964 51.7261 575.344H51.7536Z" fill="white"/>
</g>
<g opacity="0.7">
<path d="M287.59 486.049L350.998 549.514C354.111 552.63 354.111 557.682 350.998 560.799L333.346 578.466C330.233 581.583 325.185 581.583 322.071 578.466L258.664 515.002C255.55 511.886 255.55 506.833 258.664 503.717L276.316 486.049C279.429 482.933 284.477 482.933 287.59 486.049Z" fill="#BDE5DE"/>
<path d="M319.304 517.785L287.593 486.088C286.853 485.346 285.974 484.757 285.007 484.355C284.039 483.953 283.002 483.747 281.954 483.747C280.907 483.747 279.87 483.953 278.902 484.355C277.935 484.757 277.056 485.346 276.316 486.088L258.671 503.749C257.93 504.49 257.343 505.37 256.942 506.338C256.541 507.306 256.335 508.344 256.335 509.392C256.335 510.441 256.541 511.478 256.942 512.447C257.343 513.415 257.93 514.295 258.671 515.036L290.34 546.733L319.304 517.785Z" fill="#79C9BC"/>
<path d="M351 560.798L333.348 578.466C332.609 579.208 331.73 579.796 330.762 580.197C329.794 580.598 328.757 580.803 327.71 580.802C326.662 580.803 325.625 580.597 324.658 580.197C323.69 579.796 322.811 579.207 322.071 578.466L258.671 515.002C257.929 514.261 257.341 513.381 256.94 512.413C256.538 511.445 256.332 510.407 256.332 509.358C256.332 508.31 256.538 507.272 256.94 506.303C257.341 505.335 257.929 504.455 258.671 503.715L266.127 496.252L237.707 467.807C237.526 467.626 237.382 467.411 237.283 467.175C237.185 466.938 237.134 466.685 237.134 466.429C237.134 466.172 237.185 465.919 237.283 465.682C237.382 465.446 237.526 465.231 237.707 465.05C238.074 464.688 238.569 464.485 239.084 464.485C239.339 464.484 239.593 464.533 239.829 464.63C240.066 464.727 240.28 464.87 240.461 465.05L268.888 493.496L276.316 486.088C277.056 485.346 277.935 484.758 278.902 484.357C279.87 483.956 280.907 483.751 281.955 483.752C283.002 483.751 284.039 483.956 285.007 484.357C285.974 484.758 286.853 485.346 287.593 486.088L297.438 495.942L300.192 498.698L351 549.483C351.744 550.225 352.335 551.107 352.737 552.078C353.14 553.048 353.347 554.089 353.347 555.14C353.347 556.192 353.14 557.232 352.737 558.203C352.335 559.174 351.744 560.056 351 560.798ZM348.246 552.246L344.866 548.863L333.162 560.577L330.408 557.821L342.112 546.107L337.768 541.765L333.272 546.272L330.519 543.516L335.021 539.016L331.345 535.329L319.641 547.044L316.887 544.287L328.591 532.573L324.267 528.246L319.765 532.752L317.011 529.996L321.514 525.496L317.816 521.796L306.113 533.51L303.359 530.754L315.063 519.04L310.753 514.733L306.25 519.239L303.496 516.483L307.999 511.977L303.689 507.67L291.985 519.384L289.232 516.628L300.935 504.914L297.238 501.213L292.736 505.713L289.982 502.957L294.485 498.45L290.753 494.722L279.049 506.436L276.295 503.68L287.999 491.966L284.612 488.576C283.839 487.804 282.792 487.371 281.7 487.37C281.16 487.369 280.625 487.475 280.127 487.682C279.628 487.889 279.175 488.193 278.794 488.576L261.142 506.243C260.375 507.018 259.945 508.064 259.945 509.155C259.945 510.245 260.375 511.292 261.142 512.066L324.55 575.523C324.93 575.907 325.383 576.211 325.882 576.418C326.38 576.625 326.915 576.73 327.455 576.729C327.996 576.731 328.532 576.625 329.032 576.418C329.532 576.211 329.986 575.907 330.367 575.523L348.012 557.862C348.396 557.48 348.7 557.026 348.907 556.526C349.113 556.025 349.219 555.489 349.217 554.947C349.238 553.959 348.901 552.997 348.267 552.239L348.246 552.246Z" fill="white"/>
</g>
<g opacity="0.7">
<path d="M216.51 70.4849C195.773 81.1794 169.288 90.7093 154.321 75.7288C139.354 60.7482 148.875 34.2325 159.553 13.4775L164.655 22.8628C164.655 22.8628 155.429 42.3843 171.539 58.5018C187.649 74.6194 207.14 65.3926 207.14 65.3926L216.51 70.4849Z" fill="#79C9BC"/>
<path d="M152.668 77.3757C131.271 55.9592 155.636 14.6077 167.346 -5.2653C173.543 -15.8151 186.272 -33.8138 201.474 -35.7432C208.358 -36.6183 214.754 -34.0894 220.592 -28.246L217.294 -24.9522C212.475 -29.7758 207.47 -31.8086 202.059 -31.1195C188.331 -29.3761 176.014 -10.8055 171.353 -2.86731C161.088 14.4974 137.123 55.215 155.966 74.0751C174.809 92.9351 215.477 68.9208 232.86 58.6604C240.757 54.0022 259.318 41.6746 261.087 27.9344C261.776 22.5114 259.759 17.5225 254.891 12.6852L258.161 9.38448C264.034 15.2347 266.554 21.6501 265.686 28.5408C264.86 35.0733 259.8 48.2002 235.229 62.7053C215.374 74.3989 174.066 98.8267 152.668 77.3757Z" fill="white"/>
<path d="M261.383 6.18735L249.68 -5.52697C248.391 -6.80201 246.652 -7.51709 244.84 -7.51709C243.028 -7.51709 241.289 -6.80201 240 -5.52697C238.726 -4.23706 238.011 -2.49648 238.011 -0.682753C238.011 1.13097 238.726 2.87156 240 4.16146L251.704 15.8758L261.383 6.18735Z" fill="#79C9BC"/>
<path d="M107.65 151.776C105.502 149.638 103.799 147.095 102.64 144.294C101.481 141.493 100.888 138.49 100.896 135.458C100.888 132.424 101.481 129.418 102.641 126.614C103.802 123.811 105.507 121.266 107.657 119.127L152.668 74.0752L155.966 77.3759L110.955 122.428C109.238 124.134 107.878 126.165 106.951 128.402C106.025 130.638 105.551 133.037 105.557 135.458C105.551 137.877 106.024 140.273 106.95 142.507C107.875 144.741 109.234 146.77 110.948 148.475C114.403 151.924 119.083 153.861 123.963 153.861C128.843 153.861 133.524 151.924 136.978 148.475L170.107 115.31C172.244 113.159 174.786 111.454 177.586 110.293C180.385 109.131 183.387 108.537 186.417 108.543C189.447 108.537 192.449 109.132 195.248 110.293C198.047 111.455 200.589 113.16 202.727 115.31C207.048 119.643 209.475 125.515 209.475 131.637C209.475 137.76 207.048 143.632 202.727 147.965L162.982 187.718L159.691 184.417L199.436 144.637C202.883 141.18 204.82 136.494 204.82 131.61C204.82 126.725 202.883 122.04 199.436 118.583C197.73 116.868 195.702 115.508 193.469 114.581C191.236 113.654 188.841 113.178 186.424 113.18C184.006 113.176 181.611 113.651 179.378 114.579C177.144 115.506 175.117 116.867 173.412 118.583L140.276 151.748C135.95 156.075 130.085 158.508 123.969 158.513C117.852 158.519 111.984 156.095 107.65 151.776Z" fill="white"/>
<path d="M161.336 201.485C152.842 201.485 145.956 194.593 145.956 186.091C145.956 177.589 152.842 170.697 161.336 170.697C169.83 170.697 176.716 177.589 176.716 186.091C176.716 194.593 169.83 201.485 161.336 201.485Z" fill="#79C9BC"/>
<path d="M161.336 193.816C157.074 193.816 153.619 190.357 153.619 186.091C153.619 181.825 157.074 178.367 161.336 178.367C165.599 178.367 169.054 181.825 169.054 186.091C169.054 190.357 165.599 193.816 161.336 193.816Z" fill="#BDE5DE"/>
</g>
<g opacity="0.7">
<path d="M239.834 370.261L269.748 400.208L302.794 367.133L272.881 337.192C270.711 335.02 268.135 333.296 265.3 332.12C262.465 330.944 259.426 330.339 256.357 330.339C253.289 330.339 250.25 330.944 247.415 332.12C244.579 333.296 242.004 335.02 239.834 337.192C237.665 339.363 235.944 341.941 234.769 344.778C233.595 347.615 232.991 350.656 232.991 353.727C232.991 356.797 233.595 359.838 234.769 362.675C235.944 365.512 237.665 368.09 239.834 370.261Z" fill="#79C9BC"/>
<path d="M269.748 400.209L299.655 430.142C301.825 432.314 304.401 434.037 307.236 435.212C310.071 436.388 313.109 436.993 316.178 436.993C319.247 436.993 322.285 436.388 325.12 435.212C327.955 434.037 330.531 432.314 332.701 430.142C334.874 427.973 336.596 425.395 337.77 422.557C338.943 419.718 339.544 416.676 339.537 413.604C339.541 410.532 338.938 407.49 337.763 404.652C336.589 401.814 334.866 399.236 332.694 397.066L302.78 367.133L269.748 400.209Z" fill="#BDE5DE"/>
<path d="M302.787 367.133L332.701 397.066C334.873 399.236 336.596 401.814 337.77 404.652C338.945 407.49 339.547 410.532 339.544 413.604C339.551 416.676 338.95 419.718 337.777 422.557C336.603 425.395 334.881 427.973 332.708 430.142C330.54 432.317 327.965 434.041 325.129 435.217C322.294 436.392 319.254 436.995 316.185 436.991C313.116 436.995 310.076 436.392 307.24 435.217C304.405 434.041 301.829 432.317 299.662 430.142L269.755 400.202L302.787 367.133ZM302.037 427.772C303.889 429.638 306.092 431.117 308.52 432.125C310.947 433.133 313.55 433.649 316.178 433.643C318.807 433.649 321.411 433.134 323.84 432.126C326.268 431.119 328.473 429.638 330.326 427.772C332.189 425.919 333.666 423.715 334.67 421.286C335.675 418.857 336.187 416.253 336.178 413.625C336.185 410.994 335.672 408.388 334.666 405.957C333.66 403.526 332.183 401.319 330.319 399.464L302.78 371.901L274.498 400.209L302.037 427.772Z" fill="white"/>
<path d="M230.437 433.422C234.533 436.147 239.445 437.37 244.339 436.883C249.233 436.395 253.808 434.228 257.287 430.748C260.763 427.266 262.929 422.687 263.416 417.788C263.903 412.89 262.681 407.973 259.958 403.874L230.437 433.422Z" fill="#BDE5DE"/>
<path d="M224.509 427.516L254.03 397.921C249.932 395.203 245.022 393.985 240.13 394.472C235.238 394.959 230.664 397.121 227.18 400.594C223.699 404.083 221.531 408.671 221.044 413.578C220.557 418.485 221.781 423.41 224.509 427.516Z" fill="#BDE5DE"/>
<path d="M224.509 427.517C224.53 427.555 224.553 427.592 224.578 427.627C225.342 428.756 226.211 429.811 227.174 430.776C228.137 431.74 229.191 432.61 230.32 433.374L230.437 433.449L259.972 403.888C259.949 403.848 259.924 403.808 259.896 403.771C259.135 402.639 258.266 401.585 257.301 400.622C256.335 399.66 255.282 398.79 254.154 398.024L254.044 397.948L224.509 427.517Z" fill="#79C9BC"/>
<path d="M227.181 400.594C229.157 398.612 231.505 397.04 234.09 395.969C236.675 394.897 239.446 394.348 242.244 394.351V397.721C239.888 397.714 237.554 398.176 235.377 399.078C233.2 399.981 231.224 401.306 229.563 402.978C226.619 405.926 224.791 409.807 224.393 413.956C223.995 418.105 225.051 422.263 227.38 425.718C228.021 426.668 228.751 427.554 229.563 428.364C230.372 429.18 231.26 429.914 232.213 430.555C235.178 432.558 238.674 433.626 242.251 433.622C244.606 433.629 246.939 433.168 249.115 432.265C251.291 431.363 253.266 430.037 254.925 428.364C257.87 425.417 259.699 421.536 260.099 417.388C260.498 413.239 259.443 409.08 257.115 405.624C256.472 404.674 255.739 403.788 254.925 402.978C254.114 402.165 253.227 401.431 252.275 400.787C249.314 398.782 245.819 397.713 242.244 397.721V394.351C246.492 394.348 250.643 395.62 254.161 398.003C255.29 398.764 256.344 399.632 257.308 400.594C258.269 401.561 259.138 402.615 259.903 403.743C262.662 407.849 263.912 412.786 263.438 417.711C262.965 422.636 260.798 427.244 257.308 430.748C255.332 432.73 252.985 434.302 250.402 435.373C247.818 436.445 245.048 436.994 242.251 436.991C238.002 436.996 233.848 435.726 230.327 433.346C229.199 432.58 228.146 431.71 227.181 430.748C226.219 429.783 225.352 428.729 224.592 427.599C221.832 423.494 220.581 418.558 221.053 413.633C221.525 408.707 223.691 404.099 227.181 400.594Z" fill="white"/>
</g>
</g>
<defs>
<clipPath id="clip0_496_8">
<rect width="315" height="603.864" fill="white" transform="matrix(-1 0 0 1 315 0.13623)"/>
</clipPath>
</defs>
</svg>
