<svg width="15" height="16" viewBox="0 0 15 16" fill="none" xmlns="http://www.w3.org/2000/svg">
<g clip-path="url(#clip0_496_134)">
<path d="M1.915 5.37202C2.43501 4.33507 3.23273 3.46336 4.21902 2.85434C5.20531 2.24532 6.34129 1.92297 7.5 1.92334C9.18438 1.92334 10.5994 2.54298 11.6813 3.5538L9.88938 5.34887C9.24125 4.7286 8.4175 4.41253 7.5 4.41253C5.87188 4.41253 4.49375 5.5141 4.00313 6.99309C3.87813 7.36863 3.80688 7.7692 3.80688 8.18229C3.80688 8.59539 3.87813 8.99596 4.00313 9.3715C4.49438 10.8511 5.87188 11.9521 7.5 11.9521C8.34063 11.9521 9.05625 11.7299 9.61625 11.3543C9.9409 11.1403 10.2188 10.8625 10.4333 10.5378C10.6477 10.2132 10.7941 9.84834 10.8638 9.46538H7.5V7.04442H13.3862C13.46 7.45375 13.5 7.88061 13.5 8.32437C13.5 10.2309 12.8188 11.8356 11.6362 12.9247C10.6025 13.8811 9.1875 14.4412 7.5 14.4412C6.67915 14.4416 5.86627 14.2799 5.10784 13.9655C4.34941 13.6511 3.66028 13.19 3.07985 12.6088C2.49942 12.0275 2.03906 11.3374 1.72508 10.5779C1.41111 9.81836 1.24967 9.00432 1.25 8.18229C1.25 7.1721 1.49125 6.21698 1.915 5.37202Z" fill="#0857DE"/>
</g>
<defs>
<clipPath id="clip0_496_134">
<rect width="15" height="15.0215" fill="white" transform="translate(0 0.671387)"/>
</clipPath>
</defs>
</svg>
