<svg width="16" height="16" viewBox="0 0 16 16" fill="none" xmlns="http://www.w3.org/2000/svg">
<path d="M13.7792 13.4722H11.5583V9.98638C11.5583 9.15519 11.5417 8.08533 10.4 8.08533C9.2425 8.08533 9.06583 8.98995 9.06583 9.92546V13.4722H6.84417V6.30445H8.9775V7.28084H9.00667C9.305 6.71837 10.03 6.12335 11.1133 6.12335C13.3633 6.12335 13.78 7.60714 13.78 9.5374V13.4722H13.7792ZM4.33583 5.32388C4.1663 5.3241 3.99838 5.2908 3.84172 5.22591C3.68506 5.16101 3.54272 5.06579 3.42288 4.9457C3.30304 4.82561 3.20804 4.68301 3.14334 4.52608C3.07864 4.36915 3.0455 4.20097 3.04583 4.03119C3.046 3.77569 3.12182 3.52597 3.2637 3.31362C3.40558 3.10127 3.60716 2.93582 3.84294 2.8382C4.07872 2.74057 4.33811 2.71516 4.58832 2.76517C4.83852 2.81517 5.0683 2.93836 5.24859 3.11914C5.42888 3.29993 5.5516 3.53019 5.60121 3.78082C5.65082 4.03145 5.62511 4.29118 5.52732 4.52717C5.42953 4.76316 5.26406 4.96481 5.05183 5.10662C4.83959 5.24844 4.59014 5.32404 4.335 5.32388H4.33583ZM5.44917 13.4722H3.22167V6.30445H5.45V13.4722H5.44917ZM14.8917 0.671387H2.1075C1.49417 0.671387 1 1.15541 1 1.75377V14.6105C1 15.2089 1.495 15.6929 2.10667 15.6929H14.8883C15.5 15.6929 16 15.2089 16 14.6105V1.75377C16 1.15541 15.5 0.671387 14.8883 0.671387H14.8908H14.8917Z" fill="#0857DE"/>
</svg>
