<svg width="20" height="16" viewBox="0 0 20 16" fill="none" xmlns="http://www.w3.org/2000/svg">
<path d="M18.125 0.597168C19.1406 0.597168 20 1.45654 20 2.47217C20 3.09717 19.6875 3.64404 19.2188 3.99561L10.7422 10.3628C10.2734 10.7144 9.6875 10.7144 9.21875 10.3628L0.742188 3.99561C0.273438 3.64404 0 3.09717 0 2.47217C0 1.45654 0.820312 0.597168 1.875 0.597168H18.125ZM8.47656 11.3784C9.375 12.0425 10.5859 12.0425 11.4844 11.3784L20 4.97217V13.0972C20 14.5034 18.8672 15.5972 17.5 15.5972H2.5C1.09375 15.5972 0 14.5034 0 13.0972V4.97217L8.47656 11.3784Z" fill="#0857DE"/>
</svg>
