<svg width="41" height="42" viewBox="0 0 41 42" fill="none" xmlns="http://www.w3.org/2000/svg">
<path d="M39.9219 31.3403L38.0469 39.231C37.8125 40.4028 36.875 41.1841 35.7031 41.1841C16.0156 41.106 0 25.0903 0 5.40283C0 4.23096 0.703125 3.29346 1.875 3.05908L9.76562 1.18408C10.8594 0.949707 12.0312 1.57471 12.5 2.59033L16.1719 11.106C16.5625 12.1216 16.3281 13.2935 15.4688 13.9185L11.25 17.356C13.9062 22.7466 18.2812 27.1216 23.75 29.7778L27.1875 25.5591C27.8125 24.7778 28.9844 24.4653 30 24.856L38.5156 28.5278C39.5312 29.0747 40.1562 30.2466 39.9219 31.3403Z" fill="white"/>
</svg>
