<svg width="21" height="21" viewBox="0 0 21 21" fill="none" xmlns="http://www.w3.org/2000/svg">
<path d="M19.9609 15.3218L19.0234 19.2671C18.9062 19.853 18.4375 20.2437 17.8516 20.2437C8.00781 20.2046 0 12.1968 0 2.35303C0 1.76709 0.351562 1.29834 0.9375 1.18115L4.88281 0.243652C5.42969 0.126465 6.01562 0.438965 6.25 0.946777L8.08594 5.20459C8.28125 5.7124 8.16406 6.29834 7.73438 6.61084L5.625 8.32959C6.95312 11.0249 9.14062 13.2124 11.875 14.5405L13.5938 12.4312C13.9062 12.0405 14.4922 11.8843 15 12.0796L19.2578 13.9155C19.7656 14.189 20.0781 14.7749 19.9609 15.3218Z" fill="#0857DE"/>
</svg>
