<svg width="22" height="21" viewBox="0 0 22 21" fill="none" xmlns="http://www.w3.org/2000/svg">
<path d="M20.9609 2.43213L18.4609 18.6431C18.4219 19.0337 18.1875 19.3853 17.8359 19.5806C17.6406 19.6587 17.4453 19.7368 17.2109 19.7368C17.0547 19.7368 16.8984 19.6978 16.7422 19.6196L11.9766 17.6274L9.98438 20.5962C9.82812 20.8696 9.55469 20.9868 9.28125 20.9868C8.85156 20.9868 8.5 20.6353 8.5 20.2056V16.4556C8.5 16.1431 8.57812 15.8696 8.73438 15.6743L17.25 4.73682L5.76562 15.0884L1.74219 13.4087C1.3125 13.2134 1 12.8228 1 12.3149C0.960938 11.7681 1.19531 11.3774 1.625 11.1431L19.125 1.18213C19.5156 0.947754 20.0625 0.947754 20.4531 1.22119C20.8438 1.49463 21.0391 1.96338 20.9609 2.43213Z" fill="#0857DE"/>
</svg>
