<svg width="16" height="14" viewBox="0 0 16 14" fill="none" xmlns="http://www.w3.org/2000/svg">
<path d="M14.3438 3.42139C14.3438 3.57764 14.3438 3.70264 14.3438 3.85889C14.3438 8.20264 11.0625 13.1714 5.03125 13.1714C3.15625 13.1714 1.4375 12.6401 0 11.7026C0.25 11.7339 0.5 11.7651 0.78125 11.7651C2.3125 11.7651 3.71875 11.2339 4.84375 10.3589C3.40625 10.3276 2.1875 9.39014 1.78125 8.07764C2 8.10889 2.1875 8.14014 2.40625 8.14014C2.6875 8.14014 3 8.07764 3.25 8.01514C1.75 7.70264 0.625 6.39014 0.625 4.79639V4.76514C1.0625 5.01514 1.59375 5.14014 2.125 5.17139C1.21875 4.57764 0.65625 3.57764 0.65625 2.45264C0.65625 1.82764 0.8125 1.26514 1.09375 0.796387C2.71875 2.76514 5.15625 4.07764 7.875 4.23389C7.8125 3.98389 7.78125 3.73389 7.78125 3.48389C7.78125 1.67139 9.25 0.202637 11.0625 0.202637C12 0.202637 12.8438 0.577637 13.4688 1.23389C14.1875 1.07764 14.9062 0.796387 15.5312 0.421387C15.2812 1.20264 14.7812 1.82764 14.0938 2.23389C14.75 2.17139 15.4062 1.98389 15.9688 1.73389C15.5312 2.39014 14.9688 2.95264 14.3438 3.42139Z" fill="#0857DE"/>
</svg>
