<svg width="60" height="60" viewBox="0 0 60 60" fill="none" xmlns="http://www.w3.org/2000/svg">
<path d="M58.0333 25.1667C58.2896 25.1667 58.5355 25.0648 58.7168 24.8836C58.8981 24.7023 58.9999 24.4564 58.9999 24.2V20.3334C58.9999 20.077 58.8981 19.8311 58.7168 19.6498C58.5355 19.4685 58.2896 19.3667 58.0333 19.3667H47.4V6.80006H48.3666C48.623 6.80006 48.8689 6.69822 49.0502 6.51693C49.2314 6.33565 49.3333 6.08977 49.3333 5.8334V1.96674C49.3333 1.71037 49.2314 1.46449 49.0502 1.28321C48.8689 1.10192 48.623 1.00008 48.3666 1.00008H11.6334C11.377 1.00008 11.1311 1.10192 10.9498 1.28321C10.7686 1.46449 10.6667 1.71037 10.6667 1.96674V5.8334C10.6667 6.08977 10.7686 6.33565 10.9498 6.51693C11.1311 6.69822 11.377 6.80006 11.6334 6.80006H12.6V19.3667H1.96674C1.71036 19.3667 1.46449 19.4685 1.2832 19.6498C1.10192 19.8311 1.00007 20.077 1.00007 20.3334V24.2C1.00007 24.4564 1.10192 24.7023 1.2832 24.8836C1.46449 25.0648 1.71036 25.1667 1.96674 25.1667H2.9334V55.9356L1.33841 57.2986C1.18822 57.427 1.081 57.5984 1.0312 57.7896C0.981399 57.9809 0.991403 58.1828 1.05987 58.3682C1.12833 58.5535 1.25196 58.7135 1.41411 58.8264C1.57625 58.9394 1.76912 58.9999 1.96674 58.9999H58.0333C58.2309 58.9999 58.4237 58.9394 58.5859 58.8264C58.748 58.7135 58.8717 58.5535 58.9401 58.3682C59.0086 58.1828 59.0186 57.9809 58.9688 57.7896C58.919 57.5984 58.8118 57.427 58.6616 57.2986L57.0666 55.9356V25.1667H58.0333ZM12.6 2.9334H47.4V4.86673H12.6V2.9334ZM47.4 25.1667H55.1333V54.2729L54.0699 53.3643C52.4929 52.0109 50.4834 51.2668 48.4053 51.2666H47.4V25.1667ZM35.8 44.5C34.9449 44.5027 34.1149 44.7889 33.4397 45.3136C32.7646 45.8383 32.2824 46.572 32.0687 47.4H27.9313C27.7203 46.5705 27.2389 45.835 26.5631 45.3097C25.8874 44.7844 25.0559 44.4992 24.2 44.4992C23.3441 44.4992 22.5126 44.7844 21.8369 45.3097C21.1612 45.835 20.6797 46.5705 20.4687 47.4H18.4V38.7C18.4023 37.9316 18.7086 37.1953 19.252 36.6519C19.7953 36.1086 20.5316 35.8023 21.3 35.8H32.9V41.6C32.9 41.8563 33.0018 42.1022 33.1831 42.2835C33.3644 42.4648 33.6103 42.5666 33.8667 42.5666H41.6V47.4H39.5313C39.3175 46.572 38.8354 45.8383 38.1602 45.3136C37.4851 44.7889 36.6551 44.5027 35.8 44.5ZM37.7333 48.3666C37.7333 48.749 37.6199 49.1228 37.4075 49.4407C37.1951 49.7587 36.8931 50.0065 36.5398 50.1528C36.1866 50.2991 35.7978 50.3374 35.4228 50.2628C35.0478 50.1882 34.7033 50.0041 34.4329 49.7337C34.1625 49.4633 33.9784 49.1188 33.9038 48.7438C33.8292 48.3688 33.8675 47.98 34.0138 47.6268C34.1601 47.2735 34.4079 46.9715 34.7259 46.7591C35.0438 46.5467 35.4176 46.4333 35.8 46.4333C36.3123 46.4348 36.8031 46.639 37.1654 47.0012C37.5276 47.3635 37.7318 47.8543 37.7333 48.3666ZM33.2673 51.2666H26.7327C27.3146 50.7549 27.7317 50.0821 27.9313 49.3333H32.0687C32.2683 50.0821 32.6854 50.7549 33.2673 51.2666ZM26.1333 48.3666C26.1333 48.749 26.02 49.1228 25.8075 49.4407C25.5951 49.7587 25.2931 50.0065 24.9399 50.1528C24.5866 50.2991 24.1979 50.3374 23.8228 50.2628C23.4478 50.1882 23.1033 50.0041 22.8329 49.7337C22.5626 49.4633 22.3784 49.1188 22.3038 48.7438C22.2292 48.3688 22.2675 47.98 22.4139 47.6268C22.5602 47.2735 22.808 46.9715 23.1259 46.7591C23.4438 46.5467 23.8176 46.4333 24.2 46.4333C24.7123 46.4348 25.2032 46.639 25.5654 47.0012C25.9276 47.3635 26.1318 47.8543 26.1333 48.3666ZM38.7 35.8C39.4684 35.8023 40.2047 36.1086 40.748 36.6519C41.2914 37.1953 41.5977 37.9316 41.6 38.7V40.6333H34.8333V35.8H38.7ZM34.8333 33.8667V32.9C34.8333 32.6436 34.9352 32.3977 35.1164 32.2165C35.2977 32.0352 35.5436 31.9333 35.8 31.9333C36.0564 31.9333 36.3022 32.0352 36.4835 32.2165C36.6648 32.3977 36.7666 32.6436 36.7666 32.9V33.8667H34.8333ZM39.5313 49.3333H42.5666C42.823 49.3333 43.0689 49.2314 43.2502 49.0502C43.4314 48.8689 43.5333 48.623 43.5333 48.3666V38.7C43.5333 37.4181 43.0241 36.1887 42.1176 35.2823C41.2112 34.3759 39.9818 33.8667 38.7 33.8667V32.9C38.7 32.1309 38.3944 31.3932 37.8506 30.8494C37.3067 30.3055 36.5691 30 35.8 30C35.0309 30 34.2932 30.3055 33.7494 30.8494C33.2055 31.3932 32.9 32.1309 32.9 32.9V33.8667H21.3C20.0181 33.8667 18.7888 34.3759 17.8823 35.2823C16.9759 36.1887 16.4667 37.4181 16.4667 38.7V48.3666C16.4667 48.623 16.5685 48.8689 16.7498 49.0502C16.9311 49.2314 17.177 49.3333 17.4334 49.3333H20.4687C20.6683 50.0821 21.0854 50.7549 21.6674 51.2666H14.5334V6.80006H45.4666V51.2666H38.3326C38.9146 50.7549 39.3317 50.0821 39.5313 49.3333ZM2.9334 21.3H12.6V23.2334H2.9334V21.3ZM12.6 25.1667V51.2666H11.5947C9.51657 51.2668 7.50714 52.0109 5.93006 53.3643L4.86673 54.2729V25.1667H12.6ZM4.57673 57.0666L7.18672 54.8336C8.41391 53.7803 9.97747 53.2008 11.5947 53.1999H48.4053C50.0225 53.2008 51.5861 53.7803 52.8133 54.8336L55.4233 57.0666H4.57673ZM47.4 23.2334V21.3H57.0666V23.2334H47.4Z" fill="#0857DE"/>
<path d="M35.7991 12.6001H32.8991V9.70014C32.8991 9.44376 32.7972 9.19789 32.6159 9.0166C32.4347 8.83532 32.1888 8.73347 31.9324 8.73347H28.0657C27.8094 8.73347 27.5635 8.83532 27.3822 9.0166C27.2009 9.19789 27.0991 9.44376 27.0991 9.70014V12.6001H24.1991C23.9427 12.6001 23.6968 12.702 23.5156 12.8833C23.3343 13.0645 23.2324 13.3104 23.2324 13.5668V17.4335C23.2324 17.6898 23.3343 17.9357 23.5156 18.117C23.6968 18.2983 23.9427 18.4001 24.1991 18.4001H27.0991V21.3001C27.0991 21.5565 27.2009 21.8024 27.3822 21.9836C27.5635 22.1649 27.8094 22.2668 28.0657 22.2668H31.9324C32.1888 22.2668 32.4347 22.1649 32.6159 21.9836C32.7972 21.8024 32.8991 21.5565 32.8991 21.3001V18.4001H35.7991C36.0554 18.4001 36.3013 18.2983 36.4826 18.117C36.6639 17.9357 36.7657 17.6898 36.7657 17.4335V13.5668C36.7657 13.3104 36.6639 13.0645 36.4826 12.8833C36.3013 12.702 36.0554 12.6001 35.7991 12.6001ZM34.8324 16.4668H31.9324C31.676 16.4668 31.4301 16.5686 31.2489 16.7499C31.0676 16.9312 30.9657 17.1771 30.9657 17.4335V20.3334H29.0324V17.4335C29.0324 17.1771 28.9306 16.9312 28.7493 16.7499C28.568 16.5686 28.3221 16.4668 28.0657 16.4668H25.1658V14.5335H28.0657C28.3221 14.5335 28.568 14.4316 28.7493 14.2503C28.9306 14.069 29.0324 13.8232 29.0324 13.5668V10.6668H30.9657V13.5668C30.9657 13.8232 31.0676 14.069 31.2489 14.2503C31.4301 14.4316 31.676 14.5335 31.9324 14.5335H34.8324V16.4668Z" fill="#0857DE"/>
<path d="M34.832 26.1339H36.7654V28.0672H34.832V26.1339Z" fill="#0857DE"/>
<path d="M30.3242 28.7987L31.6913 27.4316L33.0584 28.7987L31.6913 30.1658L30.3242 28.7987Z" fill="#0857DE"/>
<path d="M38.5254 28.7999L39.8925 27.4328L41.2595 28.7999L39.8925 30.167L38.5254 28.7999Z" fill="#0857DE"/>
<path d="M27.1013 43.5335H29.0346V41.6001H30.968V39.6668H29.0346V37.7335H27.1013V39.6668H25.168V41.6001H27.1013V43.5335Z" fill="#0857DE"/>
<path d="M6.80078 29.0323H10.6674V30.9656H6.80078V29.0323Z" fill="#0857DE"/>
<path d="M6.79883 34.8339H10.6655V36.7672H6.79883V34.8339Z" fill="#0857DE"/>
<path d="M6.80078 40.6339H10.6674V42.5672H6.80078V40.6339Z" fill="#0857DE"/>
<path d="M6.79883 45.4659H10.6655V47.3993H6.79883V45.4659Z" fill="#0857DE"/>
<path d="M49.332 29.0323H53.1987V30.9656H49.332V29.0323Z" fill="#0857DE"/>
<path d="M49.334 34.8339H53.2006V36.7672H49.334V34.8339Z" fill="#0857DE"/>
<path d="M49.332 40.6339H53.1987V42.5672H49.332V40.6339Z" fill="#0857DE"/>
<path d="M49.334 45.4659H53.2006V47.3993H49.334V45.4659Z" fill="#0857DE"/>
<path d="M16.4668 20.3339H24.2001V22.2672H16.4668V20.3339Z" fill="#0857DE"/>
<path d="M16.4668 26.1339H24.2001V28.0672H16.4668V26.1339Z" fill="#0857DE"/>
<path d="M35.7988 20.3339H43.5321V22.2672H35.7988V20.3339Z" fill="#0857DE"/>
</svg>
